<svg xmlns="http://www.w3.org/2000/svg" xmlns:xlink="http://www.w3.org/1999/xlink" contentStyleType="text/css" height="614px" preserveAspectRatio="none" style="width:994px;height:614px;background:#FFFFFF;" version="1.1" viewBox="0 0 994 614" width="994px" zoomAndPan="magnify"><defs/><g><!--cluster Device--><g id="cluster_Device"><polygon fill="#FDF2F8" points="531,21,541,11,748,11,748,107,738,117,531,117,531,21" style="stroke:#1D4ED8;stroke-width:1.0;"/><line style="stroke:#1D4ED8;stroke-width:1.0;" x1="738" x2="748" y1="21" y2="11"/><line style="stroke:#1D4ED8;stroke-width:1.0;" x1="531" x2="738" y1="21" y2="21"/><line style="stroke:#1D4ED8;stroke-width:1.0;" x1="738" x2="738" y1="21" y2="117"/><text fill="#000000" font-family="Manrope" font-size="11" font-weight="bold" lengthAdjust="spacing" textLength="141.8291" x="564.5854" y="35.4189">Smart TV / Mobile &#171;device&#187;</text></g><!--cluster East--><g id="cluster_East"><polygon fill="#EFF6FF" points="21,211,31,201,512,201,512,587,502,597,21,597,21,211" style="stroke:#1D4ED8;stroke-width:1.0;"/><line style="stroke:#1D4ED8;stroke-width:1.0;" x1="502" x2="512" y1="211" y2="201"/><line style="stroke:#1D4ED8;stroke-width:1.0;" x1="21" x2="502" y1="211" y2="211"/><line style="stroke:#1D4ED8;stroke-width:1.0;" x1="502" x2="502" y1="211" y2="597"/><text fill="#000000" font-family="Manrope" font-size="11" font-weight="bold" lengthAdjust="spacing" textLength="125.3022" x="199.8489" y="225.4189">AWS &#183; us-east-1 &#171;node&#187;</text></g><!--cluster EKS--><g id="cluster_EKS"><polygon fill="#EFF6FF" points="193,264,203,254,472,254,472,555,462,565,193,565,193,264" style="stroke:#1D4ED8;stroke-width:1.0;"/><line style="stroke:#1D4ED8;stroke-width:1.0;" x1="462" x2="472" y1="264" y2="254"/><line style="stroke:#1D4ED8;stroke-width:1.0;" x1="193" x2="462" y1="264" y2="264"/><line style="stroke:#1D4ED8;stroke-width:1.0;" x1="462" x2="462" y1="264" y2="565"/><text fill="#000000" font-family="Manrope" font-size="11" font-weight="bold" lengthAdjust="spacing" textLength="203.5591" x="226.7205" y="278.4189">EKS &#183; Docker &#171;executionEnvironment&#187;</text></g><!--cluster West--><g id="cluster_West"><polygon fill="#F8FAFC" points="552,456,562,446,761,446,761,570,751,580,552,580,552,456" style="stroke:#1D4ED8;stroke-width:1.0;"/><line style="stroke:#1D4ED8;stroke-width:1.0;" x1="751" x2="761" y1="456" y2="446"/><line style="stroke:#1D4ED8;stroke-width:1.0;" x1="552" x2="751" y1="456" y2="456"/><line style="stroke:#1D4ED8;stroke-width:1.0;" x1="751" x2="751" y1="456" y2="580"/><text fill="#000000" font-family="Manrope" font-size="11" font-weight="bold" lengthAdjust="spacing" textLength="127.7407" x="588.6296" y="470.4189">AWS &#183; us-west-2 &#171;node&#187;</text><text fill="#000000" font-family="Manrope" font-size="11" font-weight="bold" lengthAdjust="spacing" textLength="91.6953" x="606.6523" y="484.2549">(r&#233;plica &#183; failover)</text></g><!--cluster OCA--><g id="cluster_OCA"><polygon fill="#F5F3FF" points="607,190,617,180,977,180,977,373,967,383,607,383,607,190" style="stroke:#1D4ED8;stroke-width:1.0;"/><line style="stroke:#1D4ED8;stroke-width:1.0;" x1="967" x2="977" y1="190" y2="180"/><line style="stroke:#1D4ED8;stroke-width:1.0;" x1="607" x2="967" y1="190" y2="190"/><line style="stroke:#1D4ED8;stroke-width:1.0;" x1="967" x2="967" y1="190" y2="383"/><text fill="#000000" font-family="Manrope" font-size="11" font-weight="bold" lengthAdjust="spacing" textLength="180.3291" x="697.8354" y="204.4189">Open Connect Appliance &#171;device&#187;</text><text fill="#000000" font-family="Manrope" font-size="11" font-weight="bold" lengthAdjust="spacing" textLength="78.8262" x="748.5869" y="218.2549">(dentro do ISP)</text></g><!--cluster FreeBSD--><g id="cluster_FreeBSD"><polygon fill="#EFF6FF" points="647,257,657,247,945,247,945,341,935,351,647,351,647,257" style="stroke:#1D4ED8;stroke-width:1.0;"/><line style="stroke:#1D4ED8;stroke-width:1.0;" x1="935" x2="945" y1="257" y2="247"/><line style="stroke:#1D4ED8;stroke-width:1.0;" x1="647" x2="935" y1="257" y2="257"/><line style="stroke:#1D4ED8;stroke-width:1.0;" x1="935" x2="935" y1="257" y2="351"/><text fill="#000000" font-family="Manrope" font-size="11" font-weight="bold" lengthAdjust="spacing" textLength="222.1968" x="680.9016" y="271.4189">FreeBSD + nginx &#171;executionEnvironment&#187;</text></g><!--entity App--><g id="elem_App"><rect fill="#FEF3C7" height="36.8359" rx="2.5" ry="2.5" style="stroke:#B45309;stroke-width:1.0;" width="110.0991" x="604" y="56"/><polygon fill="#FEF3C7" points="697.0991,61,697.0991,75,709.0991,75,709.0991,67,703.0991,61,697.0991,61" style="stroke:#B45309;stroke-width:1.0;"/><line style="stroke:#B45309;stroke-width:1.0;" x1="703.0991" x2="703.0991" y1="61" y2="67"/><line style="stroke:#B45309;stroke-width:1.0;" x1="709.0991" x2="703.0991" y1="67" y2="67"/><text fill="#000000" font-family="Manrope" font-size="11" lengthAdjust="spacing" textLength="80.0991" x="614" y="80.4189">NetflixApp v8.42</text></g><!--entity Cassandra--><g id="elem_Cassandra"><path d="M45.5,291 C45.5,281 111.1445,281 111.1445,281 C111.1445,281 176.7891,281 176.7891,291 L176.7891,327.6719 C176.7891,337.6719 111.1445,337.6719 111.1445,337.6719 C111.1445,337.6719 45.5,337.6719 45.5,327.6719 L45.5,291 " fill="#F0FDF4" style="stroke:#15803D;stroke-width:1.0;"/><path d="M45.5,291 C45.5,301 111.1445,301 111.1445,301 C111.1445,301 176.7891,301 176.7891,291 " fill="none" style="stroke:#15803D;stroke-width:1.0;"/><text fill="#000000" font-family="Manrope" font-size="11" lengthAdjust="spacing" textLength="91.0938" x="55.5" y="316.4189">Cassandra Cluster</text><text fill="#000000" font-family="Manrope" font-size="11" lengthAdjust="spacing" textLength="111.2891" x="55.5" y="330.2549">metadata.db (sharded)</text></g><!--entity playback-svc:v3--><g id="elem_playback-svc:v3"><rect fill="#FEF3C7" height="36.8359" rx="2.5" ry="2.5" style="stroke:#B45309;stroke-width:1.0;" width="108.2515" x="218" y="291"/><polygon fill="#FEF3C7" points="309.2515,296,309.2515,310,321.2515,310,321.2515,302,315.2515,296,309.2515,296" style="stroke:#B45309;stroke-width:1.0;"/><line style="stroke:#B45309;stroke-width:1.0;" x1="315.2515" x2="315.2515" y1="296" y2="302"/><line style="stroke:#B45309;stroke-width:1.0;" x1="321.2515" x2="315.2515" y1="302" y2="302"/><text fill="#000000" font-family="Manrope" font-size="11" lengthAdjust="spacing" textLength="78.2515" x="228" y="315.4189">playback-svc:v3</text></g><!--entity drm-svc:v1--><g id="elem_drm-svc:v1"><rect fill="#FEF3C7" height="36.8359" rx="2.5" ry="2.5" style="stroke:#B45309;stroke-width:1.0;" width="83.7808" x="361" y="291"/><polygon fill="#FEF3C7" points="427.7808,296,427.7808,310,439.7808,310,439.7808,302,433.7808,296,427.7808,296" style="stroke:#B45309;stroke-width:1.0;"/><line style="stroke:#B45309;stroke-width:1.0;" x1="433.7808" x2="433.7808" y1="296" y2="302"/><line style="stroke:#B45309;stroke-width:1.0;" x1="439.7808" x2="433.7808" y1="302" y2="302"/><text fill="#000000" font-family="Manrope" font-size="11" lengthAdjust="spacing" textLength="53.7808" x="371" y="315.4189">drm-svc:v1</text></g><!--entity catalog-svc:v5--><g id="elem_catalog-svc:v5"><rect fill="#FEF3C7" height="36.8359" rx="2.5" ry="2.5" style="stroke:#B45309;stroke-width:1.0;" width="100.3076" x="218" y="512"/><polygon fill="#FEF3C7" points="301.3076,517,301.3076,531,313.3076,531,313.3076,523,307.3076,517,301.3076,517" style="stroke:#B45309;stroke-width:1.0;"/><line style="stroke:#B45309;stroke-width:1.0;" x1="307.3076" x2="307.3076" y1="517" y2="523"/><line style="stroke:#B45309;stroke-width:1.0;" x1="313.3076" x2="307.3076" y1="523" y2="523"/><text fill="#000000" font-family="Manrope" font-size="11" lengthAdjust="spacing" textLength="70.3076" x="228" y="536.4189">catalog-svc:v5</text></g><!--entity profile-svc:v2--><g id="elem_profile-svc:v2"><rect fill="#FEF3C7" height="36.8359" rx="2.5" ry="2.5" style="stroke:#B45309;stroke-width:1.0;" width="94.7969" x="353.5" y="512"/><polygon fill="#FEF3C7" points="431.2969,517,431.2969,531,443.2969,531,443.2969,523,437.2969,517,431.2969,517" style="stroke:#B45309;stroke-width:1.0;"/><line style="stroke:#B45309;stroke-width:1.0;" x1="437.2969" x2="437.2969" y1="517" y2="523"/><line style="stroke:#B45309;stroke-width:1.0;" x1="443.2969" x2="437.2969" y1="523" y2="523"/><text fill="#000000" font-family="Manrope" font-size="11" lengthAdjust="spacing" textLength="64.7969" x="363.5" y="536.4189">profile-svc:v2</text></g><!--entity Replica--><g id="elem_Replica"><rect fill="#FEF3C7" height="50.6719" rx="2.5" ry="2.5" style="stroke:#B45309;stroke-width:1.0;" width="141.2568" x="595.5" y="505"/><polygon fill="#FEF3C7" points="719.7568,510,719.7568,524,731.7568,524,731.7568,516,725.7568,510,719.7568,510" style="stroke:#B45309;stroke-width:1.0;"/><line style="stroke:#B45309;stroke-width:1.0;" x1="725.7568" x2="725.7568" y1="510" y2="516"/><line style="stroke:#B45309;stroke-width:1.0;" x1="731.7568" x2="725.7568" y1="516" y2="516"/><text fill="#000000" font-family="Manrope" font-size="11" lengthAdjust="spacing" textLength="66.6445" x="605.5" y="529.4189">stack id&#234;ntica</text><text fill="#000000" font-family="Manrope" font-size="11" lengthAdjust="spacing" textLength="111.2568" x="605.5" y="543.2549">RPO &lt; 1s &#183; RTO &lt; 60s</text></g><!--entity Cache--><g id="elem_Cache"><rect fill="#FEF3C7" height="50.6719" rx="2.5" ry="2.5" style="stroke:#B45309;stroke-width:1.0;" width="133.313" x="729.5" y="284"/><polygon fill="#FEF3C7" points="845.813,289,845.813,303,857.813,303,857.813,295,851.813,289,845.813,289" style="stroke:#B45309;stroke-width:1.0;"/><line style="stroke:#B45309;stroke-width:1.0;" x1="851.813" x2="851.813" y1="289" y2="295"/><line style="stroke:#B45309;stroke-width:1.0;" x1="857.813" x2="851.813" y1="295" y2="295"/><text fill="#000000" font-family="Manrope" font-size="11" lengthAdjust="spacing" textLength="59.313" x="739.5" y="308.4189">video-cache</text><text fill="#000000" font-family="Manrope" font-size="11" lengthAdjust="spacing" textLength="103.313" x="739.5" y="322.2549">(Top-N popular titles)</text></g><!--link Device to East--><g id="link_Device_East"><path d="M530.726,98.855 C530.6272,98.9521 530.5284,99.0495 530.4296,99.1471 C530.0342,99.5376 529.6383,99.932 529.2422,100.3302 C527.6575,101.9227 526.0685,103.5758 524.4916,105.2846 C521.3378,108.7021 518.2326,112.3421 515.3086,116.1658 C509.4606,123.8131 504.3375,132.195 501,141 C494.505,158.1325 491.3887,176.9769 490.3816,195.653 C490.3186,196.8202 490.2639,197.9868 490.2171,199.1523 C490.1937,199.735 490.3728,194.3209 490.3534,194.903 " fill="none" id="Device-to-East" style="stroke:#475569;stroke-width:1.0;"/><polygon fill="#475569" points="490.1529,200.8996,494.4514,192.0383,490.32,195.9024,486.4559,191.771,490.1529,200.8996" style="stroke:#475569;stroke-width:1.0;"/><text fill="#000000" font-family="Manrope" font-size="11" lengthAdjust="spacing" textLength="69.0776" x="502" y="153.4189">&#171;HTTPS&#187; API</text></g><!--link East to West--><g id="link_East_West"><path d="M512.0643,342.0387 C512.1414,342.3401 512.2189,342.6433 512.2968,342.948 C512.6085,344.167 512.9269,345.4118 513.2514,346.6809 C518.4441,366.9869 525.2281,393.5163 532.0113,420.0425 C538.7944,446.5688 545.5766,473.0919 550.7655,493.3853 C551.0898,494.6537 551.4079,495.8977 551.7193,497.1158 C551.7972,497.4203 550.3883,491.9103 550.4654,492.2116 " fill="none" id="East-to-West" style="stroke:#475569;stroke-width:1.0;stroke-dasharray:7.0,7.0;"/><polygon fill="#475569" points="551.9517,498.0245,553.5975,488.3142,550.7131,493.1804,545.8469,490.296,551.9517,498.0245" style="stroke:#475569;stroke-width:1.0;"/><text fill="#000000" font-family="Manrope" font-size="11" lengthAdjust="spacing" textLength="122.896" x="533" y="419.4189">&#171;replica&#231;&#227;o multi-regi&#227;o&#187;</text></g><!--link Device to OCA--><g id="link_Device_OCA"><path d="M569.968,117.1062 C570.0263,117.3326 570.0847,117.5593 570.1431,117.7862 C570.2599,118.24 570.3768,118.6948 570.4938,119.1503 C572.3656,126.4388 574.26,133.9275 576,141 C584.99,177.53 594.5775,218.6775 601.9962,251.0475 C602.9236,255.0938 603.8171,259.0029 604.6712,262.7486 C605.0983,264.6215 605.5156,266.4536 605.9223,268.2416 C606.1257,269.1356 606.3265,270.0185 606.5245,270.89 C606.6235,271.3258 606.7219,271.7587 606.8195,272.1887 C606.8684,272.4037 605.5885,266.7669 605.637,266.9804 " fill="none" id="Device-to-OCA" style="stroke:#475569;stroke-width:1.0;"/><polygon fill="#475569" points="606.9655,272.8315,608.8735,263.1692,605.8584,267.9556,601.072,264.9406,606.9655,272.8315" style="stroke:#475569;stroke-width:1.0;"/><text fill="#000000" font-family="Manrope" font-size="11" lengthAdjust="spacing" textLength="143.0376" x="580" y="153.4189">&#171;HTTPS&#187; stream HLS/DASH</text></g><!--SRC=[VLHTJzim57tFhxZhNfYcb7v2GIXIQK6WZLAHQhpmujhNnIAr8ziDi8bViuTf-mDxN__ORfAMXOmjKgGuvzpZutDlyiRVuX8XJPZIWRjJEcMMBM7E-Dt2cfKM8vCO2szFYwl2SBTCc7kb5o1Puh22Z56oLU9FZVOJHjeNJ5kJ_eCHgyy8xNO575fhxZUxzlRx_Rs32ZWn0e-D5MWtZBReeHZK6NNtAEMUb2ysyKeoxbzepNlzRklWDLPTJwBiyltgYPXdS-Pgtlg3LbUynlfBhoM5x0M19lFGY9VCUfXzWbsuC7EL81mT2SmKnoXg07EKNxwWCY4xSW1V0W2siGgD2NgPg8TXca8sQFOwHGMjWgUj_l0wXby_OUL2PCw7RPBFWOtu2Rqh94looOU2F3Ry3YqnyG7voYkZJtIchD5Br7vRITIyiEg61kin7wRGPVmmwpPgiB3B4cdN4KvP9MPHelqwcbeZAPWIxUJe4zrYaoyqHimvfeLbC4fMpgEz8QEUvOIccCCEJIyrIhmhV3-JNule7YcYpdD4Dth7hh-dYU8i9qYc4fEXBOMkYKjT6KWcUQqhpbC8eCJwX_PKUwElffTm16sNgrpDykUzbYjKhh2G_sFcCaKD8wCraX9rCb5Cy-fGa2b1RR06X87pU5gwkHmDoKnVTgMizFFK8Xx7OtWFUg7qm_yxkYNNkvefWIRaZDyYxJqpQJY1rAIhX5dmoYVejiaIesWE7MOpjM4ObJDsI7kVpMRJE8fWE3qFYfS0pMPK1fdZjinY_MtzrS2I_XagjBXGj8gYgc1-rXU2pbkaB-xiOxmx7iPdmMy0]--></g></svg>