<svg xmlns="http://www.w3.org/2000/svg" xmlns:xlink="http://www.w3.org/1999/xlink" contentStyleType="text/css" height="503px" preserveAspectRatio="none" style="width:722px;height:503px;background:#FFFFFF;" version="1.1" viewBox="0 0 722 503" width="722px" zoomAndPan="magnify"><defs/><g><!--cluster Cliente--><g id="cluster_Cliente"><path d="M481.5,11 L522.5078,11 A3.75,3.75 0 0 1 525.0078,13.5 L532.0078,32.0938 L606.5,32.0938 A2.5,2.5 0 0 1 609,34.5938 L609,103.5 A2.5,2.5 0 0 1 606.5,106 L481.5,106 A2.5,2.5 0 0 1 479,103.5 L479,13.5 A2.5,2.5 0 0 1 481.5,11 " fill="#FDF2F8" style="stroke:#BE185D;stroke-width:1.0;"/><line style="stroke:#BE185D;stroke-width:1.0;" x1="479" x2="532.0078" y1="32.0938" y2="32.0938"/><text fill="#000000" font-family="Manrope" font-size="12" font-weight="bold" lengthAdjust="spacing" textLength="40.0078" x="483" y="25.457">Cliente</text></g><!--cluster Backend (AWS us-east-1)--><g id="cluster_Backend (AWS us-east-1)"><path d="M13.5,155 L159.8652,155 A3.75,3.75 0 0 1 162.3652,157.5 L169.3652,176.0938 L493.5,176.0938 A2.5,2.5 0 0 1 496,178.5938 L496,493.5 A2.5,2.5 0 0 1 493.5,496 L13.5,496 A2.5,2.5 0 0 1 11,493.5 L11,157.5 A2.5,2.5 0 0 1 13.5,155 " fill="#FDF2F8" style="stroke:#BE185D;stroke-width:1.0;"/><line style="stroke:#BE185D;stroke-width:1.0;" x1="11" x2="169.3652" y1="176.0938" y2="176.0938"/><text fill="#000000" font-family="Manrope" font-size="12" font-weight="bold" lengthAdjust="spacing" textLength="145.3652" x="15" y="169.457">Backend (AWS us-east-1)</text></g><!--cluster Externo ? ISP--><g id="cluster_Externo &#183; ISP"><path d="M529.1147,164.3562 C531.3245,158.6555 537.6051,157.5281 541.6754,162.076 C545.0998,156.3754 550.3086,157.4742 553.2433,162.5994 C556.3955,155.5739 562.1901,155.0286 566.703,161.213 C570.1191,155.8828 573.5115,155.0086 577.5156,160.6326 C580.2092,153.8286 584.3894,152.0129 589.9903,157.7379 C594.3976,151.2767 598.9298,152.2109 602.8234,158.2646 C605.643,151.2978 609.7265,150.8347 614.9719,155.7935 C619.4165,149.1557 625.5337,150.538 628.5799,157.2221 C632.9374,152.4195 638.8429,152.203 640.8737,159.5722 C644.273,154.7596 648.449,154.3711 651.8399,159.5814 C656.3254,154.2804 662.1039,153.9495 664.8077,161.3943 C668.2631,155.793 672.1708,156.65 675.9658,161.014 C679.786,155.2874 686.4411,155.9407 689.4092,161.987 C693.5361,156.6986 699.3483,157.0798 701.6511,163.8403 C708.0978,166.6727 710.7559,171.5151 704.4642,177.0584 C710.6013,180.5791 710.9864,184.928 705.3992,189.3411 C712.8941,192.1599 715.0861,197.1029 709.1285,203.4719 C714.5725,209.0904 715.3353,213.7015 707.1175,217.3388 C713.6103,222.7753 711.4344,228.4729 704.2596,231.0633 C708.5151,237.0032 708.911,241.3748 700.8071,244.0218 C696.903,249.5952 692.6851,249.6598 688.3982,244.4629 C684.5432,249.6411 680.2227,250.9436 676.036,244.8259 C673.0573,249.6672 667.4988,250.1251 664.7971,244.5277 C661.0647,250.4742 656.8888,252.394 651.5404,246.3082 C647.805,251.0196 642.1758,251.4723 639.4391,245.2072 C637.1198,251.651 632.6149,251.8354 628.3145,247.1956 C624.0129,253.3197 618.3927,251.6353 615.7815,245.4715 C611.2503,250.9261 607.3611,251.4499 603.1539,245.1243 C599.4714,251.6564 594.7105,251.197 590.0476,246.2429 C586.3861,251.0702 582.0329,250.5246 579.0723,245.4649 C574.5378,251.4185 568.8286,251.3323 565.9012,243.8853 C562.2446,250.3666 556.5477,249.7538 553.2538,243.5243 C550.3487,248.8619 545.7793,249.8112 541.803,244.698 C537.1696,251.091 531.0703,248.4334 528.9169,242.1726 C522.8809,238.4479 522.7386,232.1767 529.8555,229.4201 C523.3513,227.4862 522.7955,221.4455 527.1935,217.1469 C521.0855,212.4495 521.4241,208.4361 527.863,204.3976 C522.3249,199.9854 521.5259,195.7502 528.0859,191.5479 C521.2909,186.2275 521.5089,180.7922 528.8451,176.1694 C522.5021,172.2558 523.455,167.996 529.1147,164.3562 " fill="#FDF2F8" style="stroke:#BE185D;stroke-width:1.0;"/><text fill="#000000" font-family="Manrope" font-size="12" font-weight="bold" lengthAdjust="spacing" textLength="74.6836" x="576.6582" y="180.457">Externo &#183; ISP</text></g><!--entity App--><g id="elem_App"><rect fill="#EFF6FF" height="45.0938" rx="2.5" ry="2.5" style="stroke:#1D4ED8;stroke-width:1.0;" width="98.0254" x="495" y="45"/><rect fill="#EFF6FF" height="10" style="stroke:#1D4ED8;stroke-width:1.0;" width="15" x="573.0254" y="50"/><rect fill="#EFF6FF" height="2" style="stroke:#1D4ED8;stroke-width:1.0;" width="4" x="571.0254" y="52"/><rect fill="#EFF6FF" height="2" style="stroke:#1D4ED8;stroke-width:1.0;" width="4" x="571.0254" y="56"/><text fill="#000000" font-family="Manrope" font-size="12" lengthAdjust="spacing" textLength="58.0254" x="510" y="77.457">Netflix App</text></g><!--entity GW--><g id="elem_GW"><rect fill="#EFF6FF" height="45.0938" rx="2.5" ry="2.5" style="stroke:#1D4ED8;stroke-width:1.0;" width="144.0391" x="299" y="189"/><rect fill="#EFF6FF" height="10" style="stroke:#1D4ED8;stroke-width:1.0;" width="15" x="423.0391" y="194"/><rect fill="#EFF6FF" height="2" style="stroke:#1D4ED8;stroke-width:1.0;" width="4" x="421.0391" y="196"/><rect fill="#EFF6FF" height="2" style="stroke:#1D4ED8;stroke-width:1.0;" width="4" x="421.0391" y="200"/><text fill="#000000" font-family="Manrope" font-size="12" lengthAdjust="spacing" textLength="104.0391" x="314" y="221.457">API Gateway &#183; Zuul</text></g><!--entity Orch--><g id="elem_Orch"><rect fill="#EFF6FF" height="45.0938" rx="2.5" ry="2.5" style="stroke:#1D4ED8;stroke-width:1.0;" width="158.7109" x="177.5" y="313"/><rect fill="#EFF6FF" height="10" style="stroke:#1D4ED8;stroke-width:1.0;" width="15" x="316.2109" y="318"/><rect fill="#EFF6FF" height="2" style="stroke:#1D4ED8;stroke-width:1.0;" width="4" x="314.2109" y="320"/><rect fill="#EFF6FF" height="2" style="stroke:#1D4ED8;stroke-width:1.0;" width="4" x="314.2109" y="324"/><text fill="#000000" font-family="Manrope" font-size="12" lengthAdjust="spacing" textLength="118.7109" x="192.5" y="345.457">Playback Orchestrator</text></g><!--entity DRM--><g id="elem_DRM"><rect fill="#EFF6FF" height="45.0938" rx="2.5" ry="2.5" style="stroke:#1D4ED8;stroke-width:1.0;" width="110.6758" x="27.5" y="435"/><rect fill="#EFF6FF" height="10" style="stroke:#1D4ED8;stroke-width:1.0;" width="15" x="118.1758" y="440"/><rect fill="#EFF6FF" height="2" style="stroke:#1D4ED8;stroke-width:1.0;" width="4" x="116.1758" y="442"/><rect fill="#EFF6FF" height="2" style="stroke:#1D4ED8;stroke-width:1.0;" width="4" x="116.1758" y="446"/><text fill="#000000" font-family="Manrope" font-size="12" lengthAdjust="spacing" textLength="70.6758" x="42.5" y="467.457">DRM Service</text></g><!--entity Cat--><g id="elem_Cat"><rect fill="#EFF6FF" height="45.0938" rx="2.5" ry="2.5" style="stroke:#1D4ED8;stroke-width:1.0;" width="124.709" x="173.5" y="435"/><rect fill="#EFF6FF" height="10" style="stroke:#1D4ED8;stroke-width:1.0;" width="15" x="278.209" y="440"/><rect fill="#EFF6FF" height="2" style="stroke:#1D4ED8;stroke-width:1.0;" width="4" x="276.209" y="442"/><rect fill="#EFF6FF" height="2" style="stroke:#1D4ED8;stroke-width:1.0;" width="4" x="276.209" y="446"/><text fill="#000000" font-family="Manrope" font-size="12" lengthAdjust="spacing" textLength="84.709" x="188.5" y="467.457">Catalog Service</text></g><!--entity Prof--><g id="elem_Prof"><rect fill="#EFF6FF" height="45.0938" rx="2.5" ry="2.5" style="stroke:#1D4ED8;stroke-width:1.0;" width="146.0313" x="334" y="435"/><rect fill="#EFF6FF" height="10" style="stroke:#1D4ED8;stroke-width:1.0;" width="15" x="460.0313" y="440"/><rect fill="#EFF6FF" height="2" style="stroke:#1D4ED8;stroke-width:1.0;" width="4" x="458.0313" y="442"/><rect fill="#EFF6FF" height="2" style="stroke:#1D4ED8;stroke-width:1.0;" width="4" x="458.0313" y="446"/><text fill="#000000" font-family="Manrope" font-size="12" lengthAdjust="spacing" textLength="106.0313" x="349" y="467.457">User Profile Service</text></g><!--entity CDN--><g id="elem_CDN"><rect fill="#EFF6FF" height="45.0938" rx="2.5" ry="2.5" style="stroke:#1D4ED8;stroke-width:1.0;" width="154.709" x="536.5" y="189"/><rect fill="#EFF6FF" height="10" style="stroke:#1D4ED8;stroke-width:1.0;" width="15" x="671.209" y="194"/><rect fill="#EFF6FF" height="2" style="stroke:#1D4ED8;stroke-width:1.0;" width="4" x="669.209" y="196"/><rect fill="#EFF6FF" height="2" style="stroke:#1D4ED8;stroke-width:1.0;" width="4" x="669.209" y="200"/><text fill="#000000" font-family="Manrope" font-size="12" lengthAdjust="spacing" textLength="114.709" x="551.5" y="221.457">Open Connect (CDN)</text></g><!--link App to GW--><g id="link_App_GW"><path d="M517.73,90.07 C485.11,116.83 437.5596,155.8655 404.9696,182.6155 " fill="none" id="App-to-GW" style="stroke:#475569;stroke-width:1.0;"/><path d="M404.985,193.5442 A9,9 0 0 0 394.2536 180.4699" fill="none" style="stroke:#475569;stroke-width:1.5;"/><text fill="#000000" font-family="Manrope" font-size="12" lengthAdjust="spacing" textLength="25.3418" x="479" y="135.457">IHttp</text></g><!--link GW to Orch--><g id="link_GW_Orch"><path d="M350.88,234.03 C330.17,256.19 304.9088,283.2347 284.1288,305.4647 " fill="none" id="GW-to-Orch" style="stroke:#475569;stroke-width:1.0;"/><path d="M285.5803,316.2966 A9,9 0 0 0 273.2238 304.746" fill="none" style="stroke:#475569;stroke-width:1.5;"/><text fill="#000000" font-family="Manrope" font-size="12" lengthAdjust="spacing" textLength="52.0254" x="321" y="279.457">IPlayback</text></g><!--link Orch to DRM--><g id="link_Orch_DRM"><path d="M225.49,358.23 C193.96,379.98 153.9621,407.5626 122.5121,429.2526 " fill="none" id="Orch-to-DRM" style="stroke:#475569;stroke-width:1.0;"/><path d="M121.6155,440.1445 A9,9 0 0 0 112.0125 426.2203" fill="none" style="stroke:#475569;stroke-width:1.5;"/><text fill="#000000" font-family="Manrope" font-size="12" lengthAdjust="spacing" textLength="44.6953" x="181" y="401.457">ILicense</text></g><!--link Orch to Cat--><g id="link_Orch_Cat"><path d="M253.2,358.23 C249.39,379.98 245.2957,403.39 241.4957,425.08 " fill="none" id="Orch-to-Cat" style="stroke:#475569;stroke-width:1.0;"/><path d="M248.6315,433.3574 A9,9 0 0 0 231.9708 430.4386" fill="none" style="stroke:#475569;stroke-width:1.5;"/><text fill="#000000" font-family="Manrope" font-size="12" lengthAdjust="spacing" textLength="44.6953" x="248" y="401.457">ICatalog</text></g><!--link Orch to Prof--><g id="link_Orch_Prof"><path d="M284.16,358.23 C311.35,379.98 345.1105,406.9941 372.2305,428.6841 " fill="none" id="Orch-to-Prof" style="stroke:#475569;stroke-width:1.0;"/><path d="M382.9184,426.4027 A9,9 0 0 0 372.3538 439.6121" fill="none" style="stroke:#475569;stroke-width:1.5;"/><text fill="#000000" font-family="Manrope" font-size="12" lengthAdjust="spacing" textLength="37.3477" x="341" y="401.457">IProfile</text></g><!--link App to CDN--><g id="link_App_CDN"><path d="M554.63,90.07 C567.79,116.76 585.6488,152.9804 598.8488,179.7604 " fill="none" id="App-to-CDN" style="stroke:#475569;stroke-width:1.0;"/><path d="M609.4949,182.2299 A9,9 0 0 0 594.3233 189.7081" fill="none" style="stroke:#475569;stroke-width:1.5;"/><text fill="#000000" font-family="Manrope" font-size="12" lengthAdjust="spacing" textLength="42.0117" x="577" y="135.457">IStream</text></g><!--SRC=[TPD1Rzf048Nl_XLJUY47f11mGdkZfacH6cB5YYAruZ1uPy7AUjTQhqjerT_LUtzPTnmJx41zmUpxzkrxe_Kxjw6Se52OwQ1yodI15dDOOVgqjgRI8ZBAM7X_NJyj8ZLvOJHfbxYT8gXoTT5IomqAiytq6YIgabhAZ2HMobqRxHReJxv5RKtn7oB9VX8CsyPJQyssoJI-2iFB3oqnscVwPAmWss13CIOnEOczRKbINahPpe8ELrXIrp2Sd8_4AUgjdpoNGexRHojJYOxPLJf24aV8aLCeHvraiITmtGssek4a52UW8pSXB-Ga28eN7NgHolmyg0U_0e3l2t9IPSymBOebOCc_mUyMpNwa1VIdZmbKvO2mT8FXMRDx6i_X1XrjSGT__y2tgb9BQ1vlTlF8KAnmnvSCxcoweT9PTCOkzmmlCZMxluM4x8yifLUBWvDN6Ohyz9LPdm8zv5M67ago45iZCtzPkwI7ME26ASyUUf-V7LbjEFqyYPjQTmLfVtMqfjH1FvejpkhP-1VUwKS4C1ZqVJrl-H7cNvmhWleFht8XNjtN3ke5LhWYArzz8Es_b5V11w-5fjv1uB2rrqkRmz4-IhqZSPOm3_u1]--></g></svg>