<svg xmlns="http://www.w3.org/2000/svg" xmlns:xlink="http://www.w3.org/1999/xlink" contentStyleType="text/css" height="516px" preserveAspectRatio="none" style="width:493px;height:516px;background:#FFFFFF;" version="1.1" viewBox="0 0 493 516" width="493px" zoomAndPan="magnify"><title>Anatomia da nota&#231;&#227;o UML de Componentes</title><defs/><g><text fill="#000000" font-family="Manrope" font-size="22" font-weight="bold" lengthAdjust="spacing" textLength="460.8184" x="15" y="37.8379">Anatomia da nota&#231;&#227;o UML de Componentes</text><!--entity A--><g id="elem_A"><rect fill="#EFF6FF" height="62.7031" rx="2.5" ry="2.5" style="stroke:#1D4ED8;stroke-width:1.0;" width="136.8081" x="228.4265" y="60.6719"/><rect fill="#EFF6FF" height="10" style="stroke:#1D4ED8;stroke-width:1.0;" width="15" x="345.2346" y="65.6719"/><rect fill="#EFF6FF" height="2" style="stroke:#1D4ED8;stroke-width:1.0;" width="4" x="343.2346" y="67.6719"/><rect fill="#EFF6FF" height="2" style="stroke:#1D4ED8;stroke-width:1.0;" width="4" x="343.2346" y="71.6719"/><text fill="#000000" font-family="Manrope" font-size="13" lengthAdjust="spacing" textLength="86.7217" x="243.4265" y="94.167">Componente A</text><text fill="#000000" font-family="Manrope" font-size="13" lengthAdjust="spacing" textLength="96.8081" x="243.4265" y="110.5186">(requer IService)</text></g><!--entity B--><g id="elem_B"><rect fill="#EFF6FF" height="79.0547" rx="2.5" ry="2.5" style="stroke:#1D4ED8;stroke-width:1.0;" width="145.5044" x="141.9265" y="201.6719"/><rect fill="#EFF6FF" height="10" style="stroke:#1D4ED8;stroke-width:1.0;" width="15" x="267.4309" y="206.6719"/><rect fill="#EFF6FF" height="2" style="stroke:#1D4ED8;stroke-width:1.0;" width="4" x="265.4309" y="208.6719"/><rect fill="#EFF6FF" height="2" style="stroke:#1D4ED8;stroke-width:1.0;" width="4" x="265.4309" y="212.6719"/><text fill="#000000" font-family="Manrope" font-size="13" lengthAdjust="spacing" textLength="86.7217" x="156.9265" y="235.167">Componente B</text><text fill="#000000" font-family="Manrope" font-size="13" lengthAdjust="spacing" textLength="98.2617" x="156.9265" y="251.5186">(fornece IService</text><text fill="#000000" font-family="Manrope" font-size="13" lengthAdjust="spacing" textLength="105.5044" x="156.9265" y="267.8701">requer ILog e IDb)</text></g><!--entity C--><g id="elem_C"><rect fill="#EFF6FF" height="62.7031" rx="2.5" ry="2.5" style="stroke:#1D4ED8;stroke-width:1.0;" width="127.439" x="70.4265" y="358.6719"/><rect fill="#EFF6FF" height="10" style="stroke:#1D4ED8;stroke-width:1.0;" width="15" x="177.8655" y="363.6719"/><rect fill="#EFF6FF" height="2" style="stroke:#1D4ED8;stroke-width:1.0;" width="4" x="175.8655" y="365.6719"/><rect fill="#EFF6FF" height="2" style="stroke:#1D4ED8;stroke-width:1.0;" width="4" x="175.8655" y="369.6719"/><text fill="#000000" font-family="Manrope" font-size="13" lengthAdjust="spacing" textLength="87.439" x="85.4265" y="392.167">Componente C</text><text fill="#000000" font-family="Manrope" font-size="13" lengthAdjust="spacing" textLength="80.9326" x="85.4265" y="408.5186">(fornece ILog)</text></g><!--entity D--><g id="elem_D"><rect fill="#EFF6FF" height="62.7031" rx="2.5" ry="2.5" style="stroke:#1D4ED8;stroke-width:1.0;" width="127.439" x="232.4265" y="358.6719"/><rect fill="#EFF6FF" height="10" style="stroke:#1D4ED8;stroke-width:1.0;" width="15" x="339.8655" y="363.6719"/><rect fill="#EFF6FF" height="2" style="stroke:#1D4ED8;stroke-width:1.0;" width="4" x="337.8655" y="365.6719"/><rect fill="#EFF6FF" height="2" style="stroke:#1D4ED8;stroke-width:1.0;" width="4" x="337.8655" y="369.6719"/><text fill="#000000" font-family="Manrope" font-size="13" lengthAdjust="spacing" textLength="87.439" x="247.4265" y="392.167">Componente D</text><text fill="#000000" font-family="Manrope" font-size="13" lengthAdjust="spacing" textLength="75.8608" x="247.4265" y="408.5186">(fornece IDb)</text></g><g id="elem_GMN9"><path d="M323.4265,228.1719 L323.4265,254.5234 A0,0 0 0 0 323.4265,254.5234 L434.3918,254.5234 A0,0 0 0 0 434.3918,254.5234 L434.3918,238.1719 L424.3918,228.1719 L376.1765,228.1719 L314.1165,123.9919 L368.1765,228.1719 L323.4265,228.1719 A0,0 0 0 0 323.4265,228.1719 " fill="#FFFFFF" style="stroke:#000000;stroke-width:1.0;"/><path d="M424.3918,228.1719 L424.3918,238.1719 L434.3918,238.1719 L424.3918,228.1719 " fill="#FFFFFF" style="stroke:#000000;stroke-width:1.0;"/><text fill="#000000" font-family="Manrope" font-size="13" lengthAdjust="spacing" textLength="89.9653" x="329.4265" y="246.667">socket = requer</text></g><g id="elem_GMN12"><path d="M73.9265,482.6719 L73.9265,509.0234 A0,0 0 0 0 73.9265,509.0234 L193.5754,509.0234 A0,0 0 0 0 193.5754,509.0234 L193.5754,492.6719 L183.5754,482.6719 L137.9265,482.6719 L133.9265,421.9419 L129.9265,482.6719 L73.9265,482.6719 A0,0 0 0 0 73.9265,482.6719 " fill="#FFFFFF" style="stroke:#000000;stroke-width:1.0;"/><path d="M183.5754,482.6719 L183.5754,492.6719 L193.5754,492.6719 L183.5754,482.6719 " fill="#FFFFFF" style="stroke:#000000;stroke-width:1.0;"/><text fill="#000000" font-family="Manrope" font-size="13" lengthAdjust="spacing" textLength="98.6489" x="79.9265" y="501.167">lollipop = fornece</text></g><!--link A to B--><g id="link_A_B"><path d="M279.7365,123.9919 C267.1465,146.5519 254.8595,168.5895 241.3495,192.7995 " fill="none" id="A-to-B" style="stroke:#475569;stroke-width:1.0;"/><path d="M245.3617,202.9651 A9,9 0 0 0 230.5913 194.7227" fill="none" style="stroke:#475569;stroke-width:1.5;"/><text fill="#000000" font-family="Manrope" font-size="13" lengthAdjust="spacing" textLength="46.96" x="261.9265" y="168.167">IService</text></g><!--link B to C--><g id="link_B_C"><path d="M193.6465,280.7919 C180.3365,304.9519 168.2423,326.8933 155.8123,349.4533 " fill="none" id="B-to-C" style="stroke:#475569;stroke-width:1.0;"/><path d="M159.8793,359.5971 A9,9 0 0 0 145.0647 351.4346" fill="none" style="stroke:#475569;stroke-width:1.5;"/><text fill="#000000" font-family="Manrope" font-size="13" lengthAdjust="spacing" textLength="25.3018" x="177.9265" y="325.167">ILog</text></g><!--link B to D--><g id="link_B_D"><path d="M236.2065,280.7919 C249.5165,304.9519 261.6108,326.8933 274.0408,349.4533 " fill="none" id="B-to-D" style="stroke:#475569;stroke-width:1.0;"/><path d="M284.7884,351.4346 A9,9 0 0 0 269.9738 359.5971" fill="none" style="stroke:#475569;stroke-width:1.5;"/><text fill="#000000" font-family="Manrope" font-size="13" lengthAdjust="spacing" textLength="20.23" x="261.9265" y="325.167">IDb</text></g><!--SRC=[TP3DJW8n58NtVOehRd310WNyILpCJqXCm0rnnwOplOM6Jk_OwKZqTLpu8BoO1GUcZDfTx_dEwUczS6ii44hDbM7LHfcIMrv0nlFDob9jH4AQB5nE3oSWSYfACcZSmhrhXBhGru5QhRcWhJ8ha5nN62WfIbvhDoNZdhb_USwDfV8VOg4-48OtWHXPIzkcq-XsF9xS1s9ox1IJ5MWRR2X6AEx-nBg_H2adKZBcbFD_YWntL2WEWeCXntTVkq-2b_aC1BOXM35sMWP4m2lejI94IzEt-5gZXQS5sZULurKlCCHTG-mDagp174-EfJb6p6W5VfvcPo59DoG9GxpdZ4wxT1hIXsWMmM3Gz-KUJXrOV1Wb-v5FRAxf_ffcZFa58MJa_CQ094GCeA9yWmuUuQSyGoFsUyHVSE9XJLghaagFDrLQ_Xi0]--></g></svg>