<svg xmlns="http://www.w3.org/2000/svg" xmlns:xlink="http://www.w3.org/1999/xlink" contentStyleType="text/css" height="561px" preserveAspectRatio="none" style="width:484px;height:561px;background:#FFFFFF;" version="1.1" viewBox="0 0 484 561" width="484px" zoomAndPan="magnify"><title>Anatomia da nota&#231;&#227;o UML de Deployment</title><defs/><g><text fill="#000000" font-family="Manrope" font-size="22" font-weight="bold" lengthAdjust="spacing" textLength="440.0537" x="17.7231" y="37.8379">Anatomia da nota&#231;&#227;o UML de Deployment</text><!--cluster Phone--><g id="cluster_Phone"><polygon fill="#FDF2F8" points="113.5,69.6719,123.5,59.6719,403.5,59.6719,403.5,259.6719,393.5,269.6719,113.5,269.6719,113.5,69.6719" style="stroke:#1D4ED8;stroke-width:1.0;"/><line style="stroke:#1D4ED8;stroke-width:1.0;" x1="393.5" x2="403.5" y1="69.6719" y2="59.6719"/><line style="stroke:#1D4ED8;stroke-width:1.0;" x1="113.5" x2="393.5" y1="69.6719" y2="69.6719"/><line style="stroke:#1D4ED8;stroke-width:1.0;" x1="393.5" x2="393.5" y1="69.6719" y2="269.6719"/><text fill="#000000" font-family="Manrope" font-size="12" font-weight="bold" lengthAdjust="spacing" textLength="124.0488" x="192.4756" y="85.1289">Smartphone &#171;device&#187;</text></g><!--cluster iOS--><g id="cluster_iOS"><polygon fill="#EFF6FF" points="153.5,124.6719,163.5,114.6719,371.5,114.6719,371.5,227.6719,361.5,237.6719,153.5,237.6719,153.5,124.6719" style="stroke:#1D4ED8;stroke-width:1.0;"/><line style="stroke:#1D4ED8;stroke-width:1.0;" x1="361.5" x2="371.5" y1="124.6719" y2="114.6719"/><line style="stroke:#1D4ED8;stroke-width:1.0;" x1="153.5" x2="361.5" y1="124.6719" y2="124.6719"/><line style="stroke:#1D4ED8;stroke-width:1.0;" x1="361.5" x2="361.5" y1="124.6719" y2="237.6719"/><text fill="#000000" font-family="Manrope" font-size="12" font-weight="bold" lengthAdjust="spacing" textLength="125.3496" x="195.8252" y="140.1289">iOS 17 &#183; App Sandbox</text><text fill="#000000" font-family="Manrope" font-size="12" font-weight="bold" lengthAdjust="spacing" textLength="142.7051" x="187.1475" y="155.2227">&#171;executionEnvironment&#187;</text></g><!--cluster EC2--><g id="cluster_EC2"><polygon fill="#EFF6FF" points="177.5,344.6719,187.5,334.6719,467.5,334.6719,467.5,534.6719,457.5,544.6719,177.5,544.6719,177.5,344.6719" style="stroke:#1D4ED8;stroke-width:1.0;"/><line style="stroke:#1D4ED8;stroke-width:1.0;" x1="457.5" x2="467.5" y1="344.6719" y2="334.6719"/><line style="stroke:#1D4ED8;stroke-width:1.0;" x1="177.5" x2="457.5" y1="344.6719" y2="344.6719"/><line style="stroke:#1D4ED8;stroke-width:1.0;" x1="457.5" x2="457.5" y1="344.6719" y2="544.6719"/><text fill="#000000" font-family="Manrope" font-size="12" font-weight="bold" lengthAdjust="spacing" textLength="120.709" x="258.1455" y="360.1289">EC2 Instance &#171;node&#187;</text></g><!--cluster Docker--><g id="cluster_Docker"><polygon fill="#EFF6FF" points="217.5,399.6719,227.5,389.6719,435.5,389.6719,435.5,502.6719,425.5,512.6719,217.5,512.6719,217.5,399.6719" style="stroke:#1D4ED8;stroke-width:1.0;"/><line style="stroke:#1D4ED8;stroke-width:1.0;" x1="425.5" x2="435.5" y1="399.6719" y2="389.6719"/><line style="stroke:#1D4ED8;stroke-width:1.0;" x1="217.5" x2="425.5" y1="399.6719" y2="399.6719"/><line style="stroke:#1D4ED8;stroke-width:1.0;" x1="425.5" x2="425.5" y1="399.6719" y2="512.6719"/><text fill="#000000" font-family="Manrope" font-size="12" font-weight="bold" lengthAdjust="spacing" textLength="40.6875" x="302.1563" y="415.1289">Docker</text><text fill="#000000" font-family="Manrope" font-size="12" font-weight="bold" lengthAdjust="spacing" textLength="142.7051" x="251.1475" y="430.2227">&#171;executionEnvironment&#187;</text></g><!--entity App--><g id="elem_App"><rect fill="#FEF3C7" height="53.1875" rx="2.5" ry="2.5" style="stroke:#B45309;stroke-width:1.0;" width="104.0391" x="210.5" y="168.6719"/><polygon fill="#FEF3C7" points="297.5391,173.6719,297.5391,187.6719,309.5391,187.6719,309.5391,179.6719,303.5391,173.6719,297.5391,173.6719" style="stroke:#B45309;stroke-width:1.0;"/><line style="stroke:#B45309;stroke-width:1.0;" x1="303.5391" x2="303.5391" y1="173.6719" y2="179.6719"/><line style="stroke:#B45309;stroke-width:1.0;" x1="309.5391" x2="303.5391" y1="179.6719" y2="179.6719"/><text fill="#000000" font-family="Manrope" font-size="12" lengthAdjust="spacing" textLength="74.0391" x="220.5" y="194.1289">NetflixApp.ipa</text><text fill="#000000" font-family="Manrope" font-size="12" lengthAdjust="spacing" textLength="39.3633" x="220.5" y="209.2227">v8.42.0</text></g><!--entity Api--><g id="elem_Api"><rect fill="#FEF3C7" height="53.1875" rx="2.5" ry="2.5" style="stroke:#B45309;stroke-width:1.0;" width="72.0293" x="290.5" y="443.6719"/><polygon fill="#FEF3C7" points="345.5293,448.6719,345.5293,462.6719,357.5293,462.6719,357.5293,454.6719,351.5293,448.6719,345.5293,448.6719" style="stroke:#B45309;stroke-width:1.0;"/><line style="stroke:#B45309;stroke-width:1.0;" x1="351.5293" x2="351.5293" y1="448.6719" y2="454.6719"/><line style="stroke:#B45309;stroke-width:1.0;" x1="357.5293" x2="351.5293" y1="454.6719" y2="454.6719"/><text fill="#000000" font-family="Manrope" font-size="12" lengthAdjust="spacing" textLength="42.0293" x="300.5" y="469.1289">api:v3.2</text><text fill="#000000" font-family="Manrope" font-size="12" lengthAdjust="spacing" textLength="32.6836" x="300.5" y="484.2227">image</text></g><g id="elem_GMN9"><path d="M11,457.6719 L11,482.7656 L150.4004,482.7656 L150.4004,467.6719 L140.4004,457.6719 L11,457.6719 " fill="#FFFFFF" style="stroke:#000000;stroke-width:1.0;"/><path d="M140.4004,457.6719 L140.4004,467.6719 L150.4004,467.6719 L140.4004,457.6719 " fill="#FFFFFF" style="stroke:#000000;stroke-width:1.0;"/><text fill="#000000" font-family="Manrope" font-size="12" lengthAdjust="spacing" textLength="118.4004" x="17" y="475.1289">caixa 3D = node f&#237;sico</text></g><!--link Phone to EC2--><g id="link_Phone_EC2"><path d="M152.4265,269.872 C152.5816,270.3011 152.7365,270.7309 152.8912,271.1613 C153.5097,272.8832 154.1241,274.6158 154.7328,276.357 C159.6025,290.2869 164.11,304.7669 167.5,318.6719 C171.4275,334.7794 174.5119,352.0738 176.9303,368.9953 C177.0815,370.0529 177.23,371.1091 177.376,372.1634 C177.4125,372.4269 176.6322,366.7462 176.6684,367.0096 " fill="none" id="Phone-to-EC2" style="stroke:#475569;stroke-width:1.0;"/><polygon fill="#475569" points="177.485,372.9537,180.2228,363.4931,176.8045,368.0003,172.2973,364.5819,177.485,372.9537" style="stroke:#475569;stroke-width:1.0;"/><text fill="#000000" font-family="Manrope" font-size="12" lengthAdjust="spacing" textLength="52.6816" x="165.5" y="307.1289">&#171;HTTPS&#187;</text></g><!--link Phone to GMN9--><g id="link_Phone_GMN9"><path d="M113.3617,250.3542 C113.2482,251.1103 113.1338,251.8717 113.0187,252.6384 C112.7884,254.1716 112.5551,255.7258 112.3188,257.2994 C111.8462,260.4466 111.3619,263.6716 110.8675,266.9636 C108.8902,280.1317 106.7519,294.3713 104.5575,308.9844 C95.78,367.4369 86.105,431.8669 82.24,457.6119 " fill="none" id="Phone-GMN9" style="stroke:#475569;stroke-width:1.0;stroke-dasharray:7.0,7.0;"/></g><!--SRC=[XP71Rjf048RlVeefEGS50u54r18DYLgfeP6SthWCtbbOOS-irWkXhV8qFVJKS-xXnRh6Zafeg-vnvf___sRsZLzIGM1pD1oLAyCM7HOmnsorSB9cTIMvE3YvsRy3HRb49G-65w0nB-cWCo6DwzpV2Fif1kzRP2Vs7uhKV2Nen0VDiNFoqAJs1lt- -SL1SogAtebJv1f5H_L83OyLn_IazRdMhqAyqPZvLrxpNhzxTl4trR6V9jtD1b7aZSy9nenU2eEW45WyxdxilWjyllq8YiAkDfSl1R6F8Wviq4eBTDukXGb68qKRar6Ij01BkDiNJxJIiHx2jmYWdZ2VKkWCuFa9njP2YgpciftnQ4HRojRU25_pnZZXAgRngcOg1m1ije3MbBpEpJQOj8t56M-6xLxSFjlhGp6e7wF75yphgnW-SEcHimgqAZRMLUStt4Io5Rd_qDIYFu3GcijDjntFs1Iue0R4l83KzpWzJVQHbu7Y_VtzNPea5QCdc8iFXmVHzUN2M8PcYz2TmDkQJkz-bYQJY5XLNqFHBm00]--></g></svg>