<svg xmlns="http://www.w3.org/2000/svg" xmlns:xlink="http://www.w3.org/1999/xlink" contentStyleType="text/css" height="662px" preserveAspectRatio="none" style="width:994px;height:662px;background:#FFFFFF;" version="1.1" viewBox="0 0 994 662" width="994px" zoomAndPan="magnify"><title>Netflix na AWS &#8212; Diagrama de Deployment</title><defs/><g><text fill="#000000" font-family="Manrope" font-size="22" font-weight="bold" lengthAdjust="spacing" textLength="455.4473" x="264.7764" y="37.8379">Netflix na AWS &#8212; Diagrama de Deployment</text><!--cluster Device--><g id="cluster_Device"><polygon fill="#FDF2F8" points="531,69.6719,541,59.6719,748,59.6719,748,155.6719,738,165.6719,531,165.6719,531,69.6719" style="stroke:#1D4ED8;stroke-width:1.0;"/><line style="stroke:#1D4ED8;stroke-width:1.0;" x1="738" x2="748" y1="69.6719" y2="59.6719"/><line style="stroke:#1D4ED8;stroke-width:1.0;" x1="531" x2="738" y1="69.6719" y2="69.6719"/><line style="stroke:#1D4ED8;stroke-width:1.0;" x1="738" x2="738" y1="69.6719" y2="165.6719"/><text fill="#000000" font-family="Manrope" font-size="11" font-weight="bold" lengthAdjust="spacing" textLength="141.8291" x="564.5854" y="84.0908">Smart TV / Mobile &#171;device&#187;</text></g><!--cluster East--><g id="cluster_East"><polygon fill="#EFF6FF" points="21,259.6719,31,249.6719,512,249.6719,512,635.6719,502,645.6719,21,645.6719,21,259.6719" style="stroke:#1D4ED8;stroke-width:1.0;"/><line style="stroke:#1D4ED8;stroke-width:1.0;" x1="502" x2="512" y1="259.6719" y2="249.6719"/><line style="stroke:#1D4ED8;stroke-width:1.0;" x1="21" x2="502" y1="259.6719" y2="259.6719"/><line style="stroke:#1D4ED8;stroke-width:1.0;" x1="502" x2="502" y1="259.6719" y2="645.6719"/><text fill="#000000" font-family="Manrope" font-size="11" font-weight="bold" lengthAdjust="spacing" textLength="125.3022" x="199.8489" y="274.0908">AWS &#183; us-east-1 &#171;node&#187;</text></g><!--cluster EKS--><g id="cluster_EKS"><polygon fill="#EFF6FF" points="193,312.6719,203,302.6719,472,302.6719,472,603.6719,462,613.6719,193,613.6719,193,312.6719" style="stroke:#1D4ED8;stroke-width:1.0;"/><line style="stroke:#1D4ED8;stroke-width:1.0;" x1="462" x2="472" y1="312.6719" y2="302.6719"/><line style="stroke:#1D4ED8;stroke-width:1.0;" x1="193" x2="462" y1="312.6719" y2="312.6719"/><line style="stroke:#1D4ED8;stroke-width:1.0;" x1="462" x2="462" y1="312.6719" y2="613.6719"/><text fill="#000000" font-family="Manrope" font-size="11" font-weight="bold" lengthAdjust="spacing" textLength="203.5591" x="226.7205" y="327.0908">EKS &#183; Docker &#171;executionEnvironment&#187;</text></g><!--cluster West--><g id="cluster_West"><polygon fill="#F8FAFC" points="552,504.6719,562,494.6719,761,494.6719,761,618.6719,751,628.6719,552,628.6719,552,504.6719" style="stroke:#1D4ED8;stroke-width:1.0;"/><line style="stroke:#1D4ED8;stroke-width:1.0;" x1="751" x2="761" y1="504.6719" y2="494.6719"/><line style="stroke:#1D4ED8;stroke-width:1.0;" x1="552" x2="751" y1="504.6719" y2="504.6719"/><line style="stroke:#1D4ED8;stroke-width:1.0;" x1="751" x2="751" y1="504.6719" y2="628.6719"/><text fill="#000000" font-family="Manrope" font-size="11" font-weight="bold" lengthAdjust="spacing" textLength="127.7407" x="588.6296" y="519.0908">AWS &#183; us-west-2 &#171;node&#187;</text><text fill="#000000" font-family="Manrope" font-size="11" font-weight="bold" lengthAdjust="spacing" textLength="91.6953" x="606.6523" y="532.9268">(r&#233;plica &#183; failover)</text></g><!--cluster OCA--><g id="cluster_OCA"><polygon fill="#F5F3FF" points="607,238.6719,617,228.6719,977,228.6719,977,421.6719,967,431.6719,607,431.6719,607,238.6719" style="stroke:#1D4ED8;stroke-width:1.0;"/><line style="stroke:#1D4ED8;stroke-width:1.0;" x1="967" x2="977" y1="238.6719" y2="228.6719"/><line style="stroke:#1D4ED8;stroke-width:1.0;" x1="607" x2="967" y1="238.6719" y2="238.6719"/><line style="stroke:#1D4ED8;stroke-width:1.0;" x1="967" x2="967" y1="238.6719" y2="431.6719"/><text fill="#000000" font-family="Manrope" font-size="11" font-weight="bold" lengthAdjust="spacing" textLength="180.3291" x="697.8354" y="253.0908">Open Connect Appliance &#171;device&#187;</text><text fill="#000000" font-family="Manrope" font-size="11" font-weight="bold" lengthAdjust="spacing" textLength="78.8262" x="748.5869" y="266.9268">(dentro do ISP)</text></g><!--cluster FreeBSD--><g id="cluster_FreeBSD"><polygon fill="#EFF6FF" points="647,305.6719,657,295.6719,945,295.6719,945,389.6719,935,399.6719,647,399.6719,647,305.6719" style="stroke:#1D4ED8;stroke-width:1.0;"/><line style="stroke:#1D4ED8;stroke-width:1.0;" x1="935" x2="945" y1="305.6719" y2="295.6719"/><line style="stroke:#1D4ED8;stroke-width:1.0;" x1="647" x2="935" y1="305.6719" y2="305.6719"/><line style="stroke:#1D4ED8;stroke-width:1.0;" x1="935" x2="935" y1="305.6719" y2="399.6719"/><text fill="#000000" font-family="Manrope" font-size="11" font-weight="bold" lengthAdjust="spacing" textLength="222.1968" x="680.9016" y="320.0908">FreeBSD + nginx &#171;executionEnvironment&#187;</text></g><!--entity App--><g id="elem_App"><rect fill="#FEF3C7" height="36.8359" rx="2.5" ry="2.5" style="stroke:#B45309;stroke-width:1.0;" width="110.0991" x="604" y="104.6719"/><polygon fill="#FEF3C7" points="697.0991,109.6719,697.0991,123.6719,709.0991,123.6719,709.0991,115.6719,703.0991,109.6719,697.0991,109.6719" style="stroke:#B45309;stroke-width:1.0;"/><line style="stroke:#B45309;stroke-width:1.0;" x1="703.0991" x2="703.0991" y1="109.6719" y2="115.6719"/><line style="stroke:#B45309;stroke-width:1.0;" x1="709.0991" x2="703.0991" y1="115.6719" y2="115.6719"/><text fill="#000000" font-family="Manrope" font-size="11" lengthAdjust="spacing" textLength="80.0991" x="614" y="129.0908">NetflixApp v8.42</text></g><!--entity Cassandra--><g id="elem_Cassandra"><path d="M45.5,339.6719 C45.5,329.6719 111.1445,329.6719 111.1445,329.6719 C111.1445,329.6719 176.7891,329.6719 176.7891,339.6719 L176.7891,376.3438 C176.7891,386.3438 111.1445,386.3438 111.1445,386.3438 C111.1445,386.3438 45.5,386.3438 45.5,376.3438 L45.5,339.6719 " fill="#F0FDF4" style="stroke:#15803D;stroke-width:1.0;"/><path d="M45.5,339.6719 C45.5,349.6719 111.1445,349.6719 111.1445,349.6719 C111.1445,349.6719 176.7891,349.6719 176.7891,339.6719 " fill="none" style="stroke:#15803D;stroke-width:1.0;"/><text fill="#000000" font-family="Manrope" font-size="11" lengthAdjust="spacing" textLength="91.0938" x="55.5" y="365.0908">Cassandra Cluster</text><text fill="#000000" font-family="Manrope" font-size="11" lengthAdjust="spacing" textLength="111.2891" x="55.5" y="378.9268">metadata.db (sharded)</text></g><!--entity playback-svc:v3--><g id="elem_playback-svc:v3"><rect fill="#FEF3C7" height="36.8359" rx="2.5" ry="2.5" style="stroke:#B45309;stroke-width:1.0;" width="108.2515" x="218" y="339.6719"/><polygon fill="#FEF3C7" points="309.2515,344.6719,309.2515,358.6719,321.2515,358.6719,321.2515,350.6719,315.2515,344.6719,309.2515,344.6719" style="stroke:#B45309;stroke-width:1.0;"/><line style="stroke:#B45309;stroke-width:1.0;" x1="315.2515" x2="315.2515" y1="344.6719" y2="350.6719"/><line style="stroke:#B45309;stroke-width:1.0;" x1="321.2515" x2="315.2515" y1="350.6719" y2="350.6719"/><text fill="#000000" font-family="Manrope" font-size="11" lengthAdjust="spacing" textLength="78.2515" x="228" y="364.0908">playback-svc:v3</text></g><!--entity drm-svc:v1--><g id="elem_drm-svc:v1"><rect fill="#FEF3C7" height="36.8359" rx="2.5" ry="2.5" style="stroke:#B45309;stroke-width:1.0;" width="83.7808" x="361" y="339.6719"/><polygon fill="#FEF3C7" points="427.7808,344.6719,427.7808,358.6719,439.7808,358.6719,439.7808,350.6719,433.7808,344.6719,427.7808,344.6719" style="stroke:#B45309;stroke-width:1.0;"/><line style="stroke:#B45309;stroke-width:1.0;" x1="433.7808" x2="433.7808" y1="344.6719" y2="350.6719"/><line style="stroke:#B45309;stroke-width:1.0;" x1="439.7808" x2="433.7808" y1="350.6719" y2="350.6719"/><text fill="#000000" font-family="Manrope" font-size="11" lengthAdjust="spacing" textLength="53.7808" x="371" y="364.0908">drm-svc:v1</text></g><!--entity catalog-svc:v5--><g id="elem_catalog-svc:v5"><rect fill="#FEF3C7" height="36.8359" rx="2.5" ry="2.5" style="stroke:#B45309;stroke-width:1.0;" width="100.3076" x="218" y="560.6719"/><polygon fill="#FEF3C7" points="301.3076,565.6719,301.3076,579.6719,313.3076,579.6719,313.3076,571.6719,307.3076,565.6719,301.3076,565.6719" style="stroke:#B45309;stroke-width:1.0;"/><line style="stroke:#B45309;stroke-width:1.0;" x1="307.3076" x2="307.3076" y1="565.6719" y2="571.6719"/><line style="stroke:#B45309;stroke-width:1.0;" x1="313.3076" x2="307.3076" y1="571.6719" y2="571.6719"/><text fill="#000000" font-family="Manrope" font-size="11" lengthAdjust="spacing" textLength="70.3076" x="228" y="585.0908">catalog-svc:v5</text></g><!--entity profile-svc:v2--><g id="elem_profile-svc:v2"><rect fill="#FEF3C7" height="36.8359" rx="2.5" ry="2.5" style="stroke:#B45309;stroke-width:1.0;" width="94.7969" x="353.5" y="560.6719"/><polygon fill="#FEF3C7" points="431.2969,565.6719,431.2969,579.6719,443.2969,579.6719,443.2969,571.6719,437.2969,565.6719,431.2969,565.6719" style="stroke:#B45309;stroke-width:1.0;"/><line style="stroke:#B45309;stroke-width:1.0;" x1="437.2969" x2="437.2969" y1="565.6719" y2="571.6719"/><line style="stroke:#B45309;stroke-width:1.0;" x1="443.2969" x2="437.2969" y1="571.6719" y2="571.6719"/><text fill="#000000" font-family="Manrope" font-size="11" lengthAdjust="spacing" textLength="64.7969" x="363.5" y="585.0908">profile-svc:v2</text></g><!--entity Replica--><g id="elem_Replica"><rect fill="#FEF3C7" height="50.6719" rx="2.5" ry="2.5" style="stroke:#B45309;stroke-width:1.0;" width="141.2568" x="595.5" y="553.6719"/><polygon fill="#FEF3C7" points="719.7568,558.6719,719.7568,572.6719,731.7568,572.6719,731.7568,564.6719,725.7568,558.6719,719.7568,558.6719" style="stroke:#B45309;stroke-width:1.0;"/><line style="stroke:#B45309;stroke-width:1.0;" x1="725.7568" x2="725.7568" y1="558.6719" y2="564.6719"/><line style="stroke:#B45309;stroke-width:1.0;" x1="731.7568" x2="725.7568" y1="564.6719" y2="564.6719"/><text fill="#000000" font-family="Manrope" font-size="11" lengthAdjust="spacing" textLength="66.6445" x="605.5" y="578.0908">stack id&#234;ntica</text><text fill="#000000" font-family="Manrope" font-size="11" lengthAdjust="spacing" textLength="111.2568" x="605.5" y="591.9268">RPO &lt; 1s &#183; RTO &lt; 60s</text></g><!--entity Cache--><g id="elem_Cache"><rect fill="#FEF3C7" height="50.6719" rx="2.5" ry="2.5" style="stroke:#B45309;stroke-width:1.0;" width="133.313" x="729.5" y="332.6719"/><polygon fill="#FEF3C7" points="845.813,337.6719,845.813,351.6719,857.813,351.6719,857.813,343.6719,851.813,337.6719,845.813,337.6719" style="stroke:#B45309;stroke-width:1.0;"/><line style="stroke:#B45309;stroke-width:1.0;" x1="851.813" x2="851.813" y1="337.6719" y2="343.6719"/><line style="stroke:#B45309;stroke-width:1.0;" x1="857.813" x2="851.813" y1="343.6719" y2="343.6719"/><text fill="#000000" font-family="Manrope" font-size="11" lengthAdjust="spacing" textLength="59.313" x="739.5" y="357.0908">video-cache</text><text fill="#000000" font-family="Manrope" font-size="11" lengthAdjust="spacing" textLength="103.313" x="739.5" y="370.9268">(Top-N popular titles)</text></g><!--link Device to East--><g id="link_Device_East"><path d="M530.726,147.5268 C530.6272,147.624 530.5284,147.7214 530.4296,147.819 C530.0342,148.2095 529.6383,148.6039 529.2422,149.002 C527.6575,150.5946 526.0685,152.2477 524.4916,153.9565 C521.3378,157.3739 518.2326,161.014 515.3086,164.8377 C509.4606,172.485 504.3375,180.8669 501,189.6719 C494.505,206.8044 491.3887,225.6488 490.3816,244.3248 C490.3186,245.4921 490.2639,246.6587 490.2171,247.8242 C490.1937,248.4069 490.3728,242.9927 490.3534,243.5749 " fill="none" id="Device-to-East" style="stroke:#475569;stroke-width:1.0;"/><polygon fill="#475569" points="490.1529,249.5715,494.4514,240.7102,490.32,244.5743,486.4559,240.4429,490.1529,249.5715" style="stroke:#475569;stroke-width:1.0;"/><text fill="#000000" font-family="Manrope" font-size="11" lengthAdjust="spacing" textLength="69.0776" x="502" y="202.0908">&#171;HTTPS&#187; API</text></g><!--link East to West--><g id="link_East_West"><path d="M512.0643,390.7105 C512.1414,391.012 512.2189,391.3152 512.2968,391.6199 C512.6085,392.8389 512.9269,394.0837 513.2514,395.3528 C518.4441,415.6588 525.2281,442.1881 532.0113,468.7144 C538.7944,495.2406 545.5766,521.7638 550.7655,542.0572 C551.0898,543.3255 551.4079,544.5695 551.7193,545.7877 C551.7972,546.0922 550.3883,540.5822 550.4654,540.8834 " fill="none" id="East-to-West" style="stroke:#475569;stroke-width:1.0;stroke-dasharray:7.0,7.0;"/><polygon fill="#475569" points="551.9517,546.6964,553.5975,536.9861,550.7131,541.8523,545.8469,538.9678,551.9517,546.6964" style="stroke:#475569;stroke-width:1.0;"/><text fill="#000000" font-family="Manrope" font-size="11" lengthAdjust="spacing" textLength="122.896" x="533" y="468.0908">&#171;replica&#231;&#227;o multi-regi&#227;o&#187;</text></g><!--link Device to OCA--><g id="link_Device_OCA"><path d="M569.968,165.7781 C570.0263,166.0045 570.0847,166.2312 570.1431,166.4581 C570.2599,166.9119 570.3768,167.3667 570.4938,167.8222 C572.3656,175.1106 574.26,182.5994 576,189.6719 C584.99,226.2019 594.5775,267.3494 601.9962,299.7194 C602.9236,303.7656 603.8171,307.6747 604.6712,311.4205 C605.0983,313.2934 605.5156,315.1255 605.9223,316.9135 C606.1257,317.8074 606.3265,318.6904 606.5245,319.5619 C606.6235,319.9977 606.7219,320.4306 606.8195,320.8606 C606.8684,321.0756 605.5885,315.4388 605.637,315.6523 " fill="none" id="Device-to-OCA" style="stroke:#475569;stroke-width:1.0;"/><polygon fill="#475569" points="606.9655,321.5034,608.8735,311.8411,605.8584,316.6275,601.072,313.6125,606.9655,321.5034" style="stroke:#475569;stroke-width:1.0;"/><text fill="#000000" font-family="Manrope" font-size="11" lengthAdjust="spacing" textLength="143.0376" x="580" y="202.0908">&#171;HTTPS&#187; stream HLS/DASH</text></g><!--SRC=[VLJ1Rjf04BtxAwRqageoWG09YI9B518bQaDGGCqbby4xIrOnkzRkGf9MaVeH_OCUglO7UYz_qY_fs8RKSTCY8R5-Rz-ycJVcXR-cEK6QeDA1kr4wHOjpc69yCxDceKNV9CR2o-FyKsAuQnJcLkaPI4mSbP01ILma_jXeFqJMFaDjJVeFnbXz86WsIs3FMdExhjhUwtHszqlWq0XwOwmWksOqHPj4jygekYSfTwLyKiGhYR5_eZLjTrgD_UTOLJr9iXNlbJj2ZrDq5M-TRgCbdcFzfTUGGhQ3m2kV40p9oqJTWKReNOxXrwVFC50uOmK4GJozD37tSz8-23Ht2xNn7As7oNlOXZCpLInnU2XegMAAeXgWuolPWUi8kIExy340m7LlK5kNwwKfBBlrzav-Wq_1mqO_S_7p1onSIEXys6Jv35YB7_6pNB8W7xtDoGCJtv1b9jrHlF3Aw2EzLDRepFZc9bEpYsKtl8dtsVQ5RXaVB5kr2Ypil42QLIJcuIPcLg2TAffQ8tam1RgJeG_y5Uj0eDP7vr0BYz1F5iwJlMAZ7ZD2NKnXYzUTanMlSj-FvET6T4iyeft74LtfBRlwbYOgnemWKILcIROGkcGkfzALAEDAAixp4429rNVj-UwLlXYTmo4qNQPoCSb-xpPShd91kVmVC-SfQUWRhOcLECb4eOxBIy6c1CTW3GW3f-DHuUQytsCp7TcIifJdiILwCnx0Qz0pfU_-d-Y6N4rrgGIPCCRuchZsnAJX45AJBXAqa2-zsqoM6NautCnwQyCmAdRiW6kVJ2QZSHH1RtGQv0y1wlMe66I6ss8Mgw-hBmRc_2UZGaipnQSeAWjclJuHTDuIlw8dxyRRWzxu9FWD]--></g></svg>