<svg xmlns="http://www.w3.org/2000/svg" xmlns:xlink="http://www.w3.org/1999/xlink" contentStyleType="text/css" height="554px" preserveAspectRatio="none" style="width:853px;height:554px;background:#FFFFFF;" version="1.1" viewBox="0 0 853 554" width="853px" zoomAndPan="magnify"><title>Netflix Playback &#8212; Diagrama de Componentes</title><defs/><g><text fill="#000000" font-family="Manrope" font-size="22" font-weight="bold" lengthAdjust="spacing" textLength="488.501" x="177.9714" y="37.8379">Netflix Playback &#8212; Diagrama de Componentes</text><!--cluster Cliente--><g id="cluster_Cliente"><path d="M161.4145,59.6719 L202.4223,59.6719 A3.75,3.75 0 0 1 204.9223,62.1719 L211.9223,80.7656 L286.4145,80.7656 A2.5,2.5 0 0 1 288.9145,83.2656 L288.9145,152.1719 A2.5,2.5 0 0 1 286.4145,154.6719 L161.4145,154.6719 A2.5,2.5 0 0 1 158.9145,152.1719 L158.9145,62.1719 A2.5,2.5 0 0 1 161.4145,59.6719 " fill="#FDF2F8" style="stroke:#BE185D;stroke-width:1.0;"/><line style="stroke:#BE185D;stroke-width:1.0;" x1="158.9145" x2="211.9223" y1="80.7656" y2="80.7656"/><text fill="#000000" font-family="Manrope" font-size="12" font-weight="bold" lengthAdjust="spacing" textLength="40.0078" x="162.9145" y="74.1289">Cliente</text></g><!--cluster Backend (AWS us-east-1)--><g id="cluster_Backend (AWS us-east-1)"><path d="M224.4145,203.6719 L370.7798,203.6719 A3.75,3.75 0 0 1 373.2798,206.1719 L380.2798,224.7656 L704.4145,224.7656 A2.5,2.5 0 0 1 706.9145,227.2656 L706.9145,545.1719 A2.5,2.5 0 0 1 704.4145,547.6719 L224.4145,547.6719 A2.5,2.5 0 0 1 221.9145,545.1719 L221.9145,206.1719 A2.5,2.5 0 0 1 224.4145,203.6719 " fill="#FDF2F8" style="stroke:#BE185D;stroke-width:1.0;"/><line style="stroke:#BE185D;stroke-width:1.0;" x1="221.9145" x2="380.2798" y1="224.7656" y2="224.7656"/><text fill="#000000" font-family="Manrope" font-size="12" font-weight="bold" lengthAdjust="spacing" textLength="145.3652" x="225.9145" y="218.1289">Backend (AWS us-east-1)</text></g><!--cluster Externo ? ISP--><g id="cluster_Externo &#183; ISP"><path d="M19.0292,213.0281 C21.239,207.3274 27.5196,206.2 31.5899,210.7479 C35.0143,205.0473 40.2231,206.1461 43.1578,211.2712 C46.3101,204.2458 52.1046,203.7005 56.6175,209.8849 C60.0336,204.5547 63.426,203.6805 67.4302,209.3045 C70.1237,202.5005 74.3039,200.6848 79.9048,206.4098 C84.3121,199.9485 88.8443,200.8828 92.7379,206.9365 C95.5575,199.9697 99.6411,199.5066 104.8864,204.4654 C109.3311,197.8276 115.4483,199.2099 118.4944,205.8939 C122.852,201.0914 128.7574,200.8749 130.7882,208.2441 C134.1875,203.4315 138.3636,203.043 141.7544,208.2533 C146.2399,202.9522 152.0185,202.6214 154.7222,210.0661 C158.1777,204.4649 162.0853,205.3219 165.8803,209.6859 C169.7005,203.9593 176.3557,204.6126 179.3237,210.6589 C183.4507,205.3705 189.2629,205.7517 191.5656,212.5122 C198.0123,215.3445 200.6705,220.187 194.3787,225.7303 C200.5158,229.2509 200.9009,233.5998 195.3138,238.013 C202.8087,240.8318 205.0006,245.7748 199.043,252.1438 C204.487,257.7623 205.2498,262.3734 197.032,266.0106 C203.5249,271.4471 201.349,277.1447 194.1741,279.7352 C198.4296,285.6751 198.8255,290.0467 190.7216,292.6937 C186.8175,298.267 182.5996,298.3317 178.3127,293.1347 C174.4577,298.3129 170.1373,299.6155 165.9505,293.4978 C162.9719,298.339 157.4133,298.797 154.7116,293.1996 C150.9792,299.1461 146.8034,301.0659 141.4549,294.9801 C137.7196,299.6915 132.0903,300.1442 129.3537,293.8791 C127.0343,300.3229 122.5295,300.5072 118.229,295.8675 C113.9274,301.9915 108.3072,300.3072 105.696,294.1434 C101.1648,299.598 97.2757,300.1218 93.0684,293.7961 C89.3859,300.3283 84.625,299.8688 79.9621,294.9148 C76.3006,299.7421 71.9474,299.1965 68.9869,294.1368 C64.4524,300.0904 58.7431,300.0042 55.8158,292.5572 C52.1591,299.0384 46.4622,298.4257 43.1684,292.1962 C40.2632,297.5338 35.6938,298.4831 31.7175,293.3698 C27.0842,299.7629 20.9849,297.1053 18.8314,290.8444 C12.7954,287.1198 12.6531,280.8486 19.77,278.092 C13.2659,276.158 12.71,270.1173 17.1081,265.8188 C11,261.1214 11.3386,257.108 17.7776,253.0695 C12.2395,248.6573 11.4404,244.4221 18.0005,240.2198 C11.2055,234.8994 11.4234,229.4641 18.7596,224.8413 C12.4167,220.9276 13.3696,216.6678 19.0292,213.0281 " fill="#FDF2F8" style="stroke:#BE185D;stroke-width:1.0;"/><text fill="#000000" font-family="Manrope" font-size="12" font-weight="bold" lengthAdjust="spacing" textLength="74.6836" x="66.5727" y="229.1289">Externo &#183; ISP</text></g><!--entity App--><g id="elem_App"><rect fill="#EFF6FF" height="45.0938" rx="2.5" ry="2.5" style="stroke:#1D4ED8;stroke-width:1.0;" width="98.0254" x="174.9145" y="93.6719"/><rect fill="#EFF6FF" height="10" style="stroke:#1D4ED8;stroke-width:1.0;" width="15" x="252.9399" y="98.6719"/><rect fill="#EFF6FF" height="2" style="stroke:#1D4ED8;stroke-width:1.0;" width="4" x="250.9399" y="100.6719"/><rect fill="#EFF6FF" height="2" style="stroke:#1D4ED8;stroke-width:1.0;" width="4" x="250.9399" y="104.6719"/><text fill="#000000" font-family="Manrope" font-size="12" lengthAdjust="spacing" textLength="58.0254" x="189.9145" y="126.1289">Netflix App</text></g><!--entity GW--><g id="elem_GW"><rect fill="#EFF6FF" height="45.0938" rx="2.5" ry="2.5" style="stroke:#1D4ED8;stroke-width:1.0;" width="144.0391" x="241.9145" y="237.6719"/><rect fill="#EFF6FF" height="10" style="stroke:#1D4ED8;stroke-width:1.0;" width="15" x="365.9536" y="242.6719"/><rect fill="#EFF6FF" height="2" style="stroke:#1D4ED8;stroke-width:1.0;" width="4" x="363.9536" y="244.6719"/><rect fill="#EFF6FF" height="2" style="stroke:#1D4ED8;stroke-width:1.0;" width="4" x="363.9536" y="248.6719"/><text fill="#000000" font-family="Manrope" font-size="12" lengthAdjust="spacing" textLength="104.0391" x="256.9145" y="270.1289">API Gateway &#183; Zuul</text></g><!--entity Orch--><g id="elem_Orch"><rect fill="#EFF6FF" height="45.0938" rx="2.5" ry="2.5" style="stroke:#1D4ED8;stroke-width:1.0;" width="158.7109" x="269.4145" y="364.6719"/><rect fill="#EFF6FF" height="10" style="stroke:#1D4ED8;stroke-width:1.0;" width="15" x="408.1255" y="369.6719"/><rect fill="#EFF6FF" height="2" style="stroke:#1D4ED8;stroke-width:1.0;" width="4" x="406.1255" y="371.6719"/><rect fill="#EFF6FF" height="2" style="stroke:#1D4ED8;stroke-width:1.0;" width="4" x="406.1255" y="375.6719"/><text fill="#000000" font-family="Manrope" font-size="12" lengthAdjust="spacing" textLength="118.7109" x="284.4145" y="397.1289">Playback Orchestrator</text></g><!--entity DRM--><g id="elem_DRM"><rect fill="#EFF6FF" height="45.0938" rx="2.5" ry="2.5" style="stroke:#1D4ED8;stroke-width:1.0;" width="110.6758" x="238.4145" y="486.6719"/><rect fill="#EFF6FF" height="10" style="stroke:#1D4ED8;stroke-width:1.0;" width="15" x="329.0903" y="491.6719"/><rect fill="#EFF6FF" height="2" style="stroke:#1D4ED8;stroke-width:1.0;" width="4" x="327.0903" y="493.6719"/><rect fill="#EFF6FF" height="2" style="stroke:#1D4ED8;stroke-width:1.0;" width="4" x="327.0903" y="497.6719"/><text fill="#000000" font-family="Manrope" font-size="12" lengthAdjust="spacing" textLength="70.6758" x="253.4145" y="519.1289">DRM Service</text></g><!--entity Cat--><g id="elem_Cat"><rect fill="#EFF6FF" height="45.0938" rx="2.5" ry="2.5" style="stroke:#1D4ED8;stroke-width:1.0;" width="124.709" x="384.4145" y="486.6719"/><rect fill="#EFF6FF" height="10" style="stroke:#1D4ED8;stroke-width:1.0;" width="15" x="489.1235" y="491.6719"/><rect fill="#EFF6FF" height="2" style="stroke:#1D4ED8;stroke-width:1.0;" width="4" x="487.1235" y="493.6719"/><rect fill="#EFF6FF" height="2" style="stroke:#1D4ED8;stroke-width:1.0;" width="4" x="487.1235" y="497.6719"/><text fill="#000000" font-family="Manrope" font-size="12" lengthAdjust="spacing" textLength="84.709" x="399.4145" y="519.1289">Catalog Service</text></g><!--entity Prof--><g id="elem_Prof"><rect fill="#EFF6FF" height="45.0938" rx="2.5" ry="2.5" style="stroke:#1D4ED8;stroke-width:1.0;" width="146.0313" x="544.9145" y="486.6719"/><rect fill="#EFF6FF" height="10" style="stroke:#1D4ED8;stroke-width:1.0;" width="15" x="670.9458" y="491.6719"/><rect fill="#EFF6FF" height="2" style="stroke:#1D4ED8;stroke-width:1.0;" width="4" x="668.9458" y="493.6719"/><rect fill="#EFF6FF" height="2" style="stroke:#1D4ED8;stroke-width:1.0;" width="4" x="668.9458" y="497.6719"/><text fill="#000000" font-family="Manrope" font-size="12" lengthAdjust="spacing" textLength="106.0313" x="559.9145" y="519.1289">User Profile Service</text></g><!--entity CDN--><g id="elem_CDN"><rect fill="#EFF6FF" height="45.0938" rx="2.5" ry="2.5" style="stroke:#1D4ED8;stroke-width:1.0;" width="154.709" x="26.4145" y="237.6719"/><rect fill="#EFF6FF" height="10" style="stroke:#1D4ED8;stroke-width:1.0;" width="15" x="161.1235" y="242.6719"/><rect fill="#EFF6FF" height="2" style="stroke:#1D4ED8;stroke-width:1.0;" width="4" x="159.1235" y="244.6719"/><rect fill="#EFF6FF" height="2" style="stroke:#1D4ED8;stroke-width:1.0;" width="4" x="159.1235" y="248.6719"/><text fill="#000000" font-family="Manrope" font-size="12" lengthAdjust="spacing" textLength="114.709" x="41.4145" y="270.1289">Open Connect (CDN)</text></g><g id="elem_GMN18"><path d="M723.4145,232.6719 L723.4145,287.9531 L846.4438,287.9531 L846.4438,242.6719 L836.4438,232.6719 L723.4145,232.6719 " fill="#FFFFFF" style="stroke:#000000;stroke-width:1.0;"/><path d="M836.4438,232.6719 L836.4438,242.6719 L846.4438,242.6719 L836.4438,232.6719 " fill="#FFFFFF" style="stroke:#000000;stroke-width:1.0;"/><text fill="#000000" font-family="Manrope" font-size="12" lengthAdjust="spacing" textLength="102.0293" x="729.4145" y="250.1289">Stream HLS/DASH</text><text fill="#000000" font-family="Manrope" font-size="12" lengthAdjust="spacing" textLength="69.375" x="729.4145" y="265.2227">direto do ISP</text><text fill="#000000" font-family="Manrope" font-size="12" lengthAdjust="spacing" textLength="97.7285" x="729.4145" y="280.3164">~10ms de lat&#234;ncia</text></g><!--link App to GW--><g id="link_App_GW"><path d="M237.5845,138.7419 C254.5045,165.4319 277.7919,202.175 294.7619,228.955 " fill="none" id="App-to-GW" style="stroke:#475569;stroke-width:1.0;"/><path d="M305.6106,230.2749 A9,9 0 0 0 291.3232 239.3286" fill="none" style="stroke:#475569;stroke-width:1.5;"/><text fill="#000000" font-family="Manrope" font-size="12" lengthAdjust="spacing" textLength="25.3418" x="266.9145" y="184.1289">IHttp</text></g><!--link GW to Orch--><g id="link_GW_Orch"><path d="M320.0145,282.9419 C326.4345,305.8919 333.8014,332.1714 340.1914,355.0214 " fill="none" id="GW-to-Orch" style="stroke:#475569;stroke-width:1.0;"/><path d="M350.2003,359.4097 A9,9 0 0 0 333.9108 363.9651" fill="none" style="stroke:#475569;stroke-width:1.5;"/><text fill="#000000" font-family="Manrope" font-size="12" lengthAdjust="spacing" textLength="52.0254" x="333.9145" y="331.1289">IPlayback</text></g><!--link Orch to DRM--><g id="link_Orch_DRM"><path d="M338.9545,409.9019 C328.9845,431.6519 317.9106,455.821 307.9706,477.511 " fill="none" id="Orch-to-DRM" style="stroke:#475569;stroke-width:1.0;"/><path d="M312.7753,487.3269 A9,9 0 0 0 297.3986 480.2802" fill="none" style="stroke:#475569;stroke-width:1.5;"/><text fill="#000000" font-family="Manrope" font-size="12" lengthAdjust="spacing" textLength="44.6953" x="324.9145" y="453.1289">ILicense</text></g><!--link Orch to Cat--><g id="link_Orch_Cat"><path d="M366.6645,409.9019 C384.4245,431.6519 405.2599,457.1659 422.9699,478.8559 " fill="none" id="Orch-to-Cat" style="stroke:#475569;stroke-width:1.0;"/><path d="M433.8986,478.8687 A9,9 0 0 0 420.7968 489.5664" fill="none" style="stroke:#475569;stroke-width:1.5;"/><text fill="#000000" font-family="Manrope" font-size="12" lengthAdjust="spacing" textLength="44.6953" x="403.9145" y="453.1289">ICatalog</text></g><!--link Orch to Prof--><g id="link_Orch_Prof"><path d="M397.3145,409.7619 C446.0245,431.4919 511.5821,460.7376 560.3121,482.4776 " fill="none" id="Orch-to-Prof" style="stroke:#475569;stroke-width:1.0;"/><path d="M570.0791,477.5743 A9,9 0 0 0 563.1877 493.0212" fill="none" style="stroke:#475569;stroke-width:1.5;"/><text fill="#000000" font-family="Manrope" font-size="12" lengthAdjust="spacing" textLength="37.3477" x="499.9145" y="453.1289">IProfile</text></g><!--link App to CDN--><g id="link_App_CDN"><path d="M205.6845,138.7419 C183.1345,165.4319 151.399,202.9838 128.769,229.7638 " fill="none" id="App-to-CDN" style="stroke:#475569;stroke-width:1.0;"/><path d="M130.761,240.5094 A9,9 0 0 0 117.8416 229.5921" fill="none" style="stroke:#475569;stroke-width:1.5;"/><text fill="#000000" font-family="Manrope" font-size="12" lengthAdjust="spacing" textLength="42.0117" x="178.9145" y="184.1289">IStream</text></g><!--link CDN to GMN18--><g id="link_CDN_GMN18"><path d="M131.4245,237.5719 C157.4345,217.7919 198.4645,190.4819 239.4145,179.1719 C287.6145,165.8619 642.4745,161.9419 689.4145,179.1719 C718.3945,189.8119 744.6045,213.5619 762.2045,232.6219 " fill="none" id="CDN-GMN18" style="stroke:#475569;stroke-width:1.0;stroke-dasharray:7.0,7.0;"/></g><!--SRC=[TLD1Rjim4Bpp5TlqaXoCnh6TkBsvTXC7I1oZGX6WXGzhSIaJeKc1ekeaHOi-eg_e1tflVzANbAl8iPoul4ZS6GvdTgKNOK5BWjoWjgAuqJP7ZqkOOtgJULTQENJ6UNXvMgq68tNBt5co8GbtXg1ScgC6MYnGkfMs6IWq1JMG4IaiJJXrDammtdo9rhlyFun4tnEqcy83xzsgzjGzwVMENpV0uThJM-Sb-PhMbbsI_Psqfob9gMEbcbumu1mBsXRizGyxSXVhgPuwL59rcrSRLyejiPEqWoIVKPufzLHdozaqCZ3RDZQdThydTv2UgKbrfFf211tYx2OKbD6tC3LunuE7lzz_m4XZ5YKG96qQHeKG-OCcx0sDvj8UV140dzOYWpoV0HRy55yRRFP0LiB-u3g1icWH5g7LFgXF3wRdS8Q1LdW7lt_1nx8qCwXN53kxPjAZlokVBgW87eFpipM7YymQlR-4XFnddTAZn4OfeamQneaPb-qYHb94cVIX80zJxvIEJTfcHX83d33bUS7Ukzj0tZfsVvvCwrXNETdOFMif3R0_74qEgjx45puPMmJGQkt7U57o3PoFGyX5jU4g1-BgEhQe2enmH4OkeY4R_wv781glW3hU1c2pbTP3citLqKfr8WcUS2c4TO70wsmH89vWem0F68mlabUZGJAE5Qaz1GVISTQu_zO-N1RyfHWCVtxQLAFWMREO-0S0]--></g></svg>