<svg xmlns="http://www.w3.org/2000/svg" xmlns:xlink="http://www.w3.org/1999/xlink" contentStyleType="text/css" height="317px" preserveAspectRatio="none" style="width:134px;height:317px;background:#FFFFFF;" version="1.1" viewBox="0 0 134 317" width="134px" zoomAndPan="magnify"><defs/><g><!--entity FE--><g id="elem_FE"><rect fill="#FFFFFF" height="45.0938" rx="2.5" ry="2.5" style="stroke:#000000;stroke-width:1.0;" width="116.0371" x="12" y="12"/><rect fill="#FFFFFF" height="10" style="stroke:#000000;stroke-width:1.0;" width="15" x="108.0371" y="17"/><rect fill="#FFFFFF" height="2" style="stroke:#000000;stroke-width:1.0;" width="4" x="106.0371" y="19"/><rect fill="#FFFFFF" height="2" style="stroke:#000000;stroke-width:1.0;" width="4" x="106.0371" y="23"/><text fill="#000000" font-family="Manrope" font-size="12" lengthAdjust="spacing" textLength="76.0371" x="27" y="44.457">Frontend Web</text></g><!--entity BE--><g id="elem_BE"><rect fill="#FFFFFF" height="45.0938" rx="2.5" ry="2.5" style="stroke:#000000;stroke-width:1.0;" width="109.375" x="15.5" y="134"/><rect fill="#FFFFFF" height="10" style="stroke:#000000;stroke-width:1.0;" width="15" x="104.875" y="139"/><rect fill="#FFFFFF" height="2" style="stroke:#000000;stroke-width:1.0;" width="4" x="102.875" y="141"/><rect fill="#FFFFFF" height="2" style="stroke:#000000;stroke-width:1.0;" width="4" x="102.875" y="145"/><text fill="#000000" font-family="Manrope" font-size="12" lengthAdjust="spacing" textLength="69.375" x="30.5" y="166.457">Backend API</text></g><!--entity DB--><g id="elem_DB"><path d="M27.5,266 C27.5,256 70.1836,256 70.1836,256 C70.1836,256 112.8672,256 112.8672,266 L112.8672,290.0938 C112.8672,300.0938 70.1836,300.0938 70.1836,300.0938 C70.1836,300.0938 27.5,300.0938 27.5,290.0938 L27.5,266 " fill="#FFFFFF" style="stroke:#000000;stroke-width:1.0;"/><path d="M27.5,266 C27.5,276 70.1836,276 70.1836,276 C70.1836,276 112.8672,276 112.8672,266 " fill="none" style="stroke:#000000;stroke-width:1.0;"/><text fill="#000000" font-family="Manrope" font-size="12" lengthAdjust="spacing" textLength="65.3672" x="37.5" y="292.457">PostgreSQL</text></g><!--link FE to BE--><g id="link_FE_BE"><path d="M70,57.23 C70,78.98 70,102.24 70,123.93 " fill="none" id="FE-to-BE" style="stroke:#475569;stroke-width:1.0;"/><path d="M78.4572,130.8518 A9,9 0 0 0 61.5428 130.8518" fill="none" style="stroke:#475569;stroke-width:1.5;"/><text fill="#000000" font-family="Manrope" font-size="12" lengthAdjust="spacing" textLength="28.0078" x="71" y="100.457">IRest</text></g><!--link BE to DB--><g id="link_BE_DB"><path d="M70,179.14 C70,200.93 70,224.33 70,245.92 " fill="none" id="BE-to-DB" style="stroke:#475569;stroke-width:1.0;"/><path d="M78.4572,252.8418 A9,9 0 0 0 61.5428 252.8418" fill="none" style="stroke:#475569;stroke-width:1.5;"/><text fill="#000000" font-family="Manrope" font-size="12" lengthAdjust="spacing" textLength="27.3457" x="71" y="222.457">ISQL</text></g><!--SRC=[TO_1JiCm38RlUGhJNRZii6a3mMrP6sdIXWOzS7PNhwkMsbMIQeAd9m64Si57Vv_jttVXGWF1QB5dvQyzZ-XmW0PFryx9nErMh3YOcU_AZ9CCep1ngCE79PW6kyoels0hjvuxEAFrb96IpZZPO8J32yRB1sGdupz6tNyIBFB56-VazfjfzRXUFpmfzHS52kFY574BxzGK0EZ1L3dNyQ-4DyTTn8dhIhKOi45F0CLHVEWSrQ_xX1CljLAcWldyFghm3Bitya7fdqwfKoVQNm00]--></g></svg>