<svg xmlns="http://www.w3.org/2000/svg" xmlns:xlink="http://www.w3.org/1999/xlink" contentStyleType="text/css" height="390px" preserveAspectRatio="none" style="width:773px;height:390px;background:#FFFFFF;" version="1.1" viewBox="0 0 773 390" width="773px" zoomAndPan="magnify"><defs/><g><!--cluster Parceiro de Mercado ? Interno--><g id="cluster_Parceiro de Mercado &#183; Interno"><path d="M13.5,11 L183.877,11 A3.75,3.75 0 0 1 186.377,13.5 L193.377,32.0938 L193.5,32.0938 A2.5,2.5 0 0 1 196,34.5938 L196,367 A2.5,2.5 0 0 1 193.5,369.5 L13.5,369.5 A2.5,2.5 0 0 1 11,367 L11,13.5 A2.5,2.5 0 0 1 13.5,11 " fill="#FFFFFF" style="stroke:#000000;stroke-width:1.0;"/><line style="stroke:#000000;stroke-width:1.0;" x1="11" x2="193.377" y1="32.0938" y2="32.0938"/><text fill="#000000" font-family="Manrope" font-size="12" font-weight="bold" lengthAdjust="spacing" textLength="169.377" x="15" y="25.457">Parceiro de Mercado &#183; Interno</text></g><!--cluster Servi?os Externos--><g id="cluster_Servi&#231;os Externos"><path d="M228.2739,287.4995 C234.4088,273.8921 248.2915,274.6444 256.254,285.4007 C263.7349,267.5223 274.3662,267.921 286.6629,280.6099 C296.4119,270.4623 304.2438,269.1148 311.4067,283.2456 C316.9923,267.7655 328.038,265.6679 338.1561,279.0442 C346.3746,263.9331 359.1801,267.5671 366.2915,280.1682 C372.8459,265.6761 387.06,264.2823 396.4244,277.0635 C404.318,266.8245 413.3382,264.815 420.4327,277.8864 C429.825,263.7943 440.4589,265.0555 448.4702,279.2551 C458.638,266.6503 470.227,266.2434 477.9764,281.7898 C486.0674,269.3537 493.7994,267.478 503.21,280.4809 C512.942,265.5009 525.765,267.8637 533.2488,282.7426 C541.0295,270.822 551.0369,270.7831 558.2473,283.3254 C567.4952,272.2113 575.9735,272.8609 584.716,283.9285 C593.4488,270.7057 608.591,273.3268 615.4159,286.1752 C637.4485,293.6159 637.1882,307.9979 624.5114,323.8239 C639.3601,338.9478 632.1181,356.8242 613.3307,362.1306 C606.7965,375.2598 596.0131,374.571 588.3768,363.2556 C582.5856,377.7532 568.2684,378.3426 559.8921,365.9991 C552.604,380.6851 540.1403,379.4661 531.8527,367.0325 C523.2401,381.8574 514.2286,381.6455 504.7907,367.8118 C494.0162,379.825 484.6651,381.0309 475.1486,366.4117 C467.1198,379.1023 458.9226,378.7152 449.2077,368.3051 C442.014,378.7116 430.7083,378.4645 423.9995,367.7271 C414.498,383.2158 402.4361,382.8916 392.7252,367.9424 C385.65,381.0175 374.4376,381.0352 367.3741,367.931 C359.6357,379.0054 347.1482,379.6667 341.5967,365.6816 C332.1259,378.5599 320.3343,381.9055 310.6057,365.9588 C304.101,376.6742 292.6295,377.0471 286.7594,365.2856 C278.2121,379.7288 265.9965,381.2576 257.0991,365.6309 C249.5017,375.1154 237.8408,375.3533 232.7024,362.8966 C212.0306,353.8498 210.4506,335.9382 228.508,322.8364 C209.0868,311.6907 211.443,298.8853 228.2739,287.4995 " fill="#FFFFFF" style="stroke:#000000;stroke-width:1.0;"/><text fill="#000000" font-family="Manrope" font-size="12" font-weight="bold" lengthAdjust="spacing" textLength="104.7188" x="367.1406" y="300.457">Servi&#231;os Externos</text></g><!--entity FE--><g id="elem_FE"><rect fill="#FFFFFF" height="45.0938" rx="2.5" ry="2.5" style="stroke:#000000;stroke-width:1.0;" width="116.0371" x="64" y="45"/><rect fill="#FFFFFF" height="10" style="stroke:#000000;stroke-width:1.0;" width="15" x="160.0371" y="50"/><rect fill="#FFFFFF" height="2" style="stroke:#000000;stroke-width:1.0;" width="4" x="158.0371" y="52"/><rect fill="#FFFFFF" height="2" style="stroke:#000000;stroke-width:1.0;" width="4" x="158.0371" y="56"/><text fill="#000000" font-family="Manrope" font-size="12" lengthAdjust="spacing" textLength="76.0371" x="79" y="77.457">Frontend Web</text></g><!--entity BE--><g id="elem_BE"><rect fill="#FFFFFF" height="45.0938" rx="2.5" ry="2.5" style="stroke:#000000;stroke-width:1.0;" width="109.375" x="70.5" y="167"/><rect fill="#FFFFFF" height="10" style="stroke:#000000;stroke-width:1.0;" width="15" x="159.875" y="172"/><rect fill="#FFFFFF" height="2" style="stroke:#000000;stroke-width:1.0;" width="4" x="157.875" y="174"/><rect fill="#FFFFFF" height="2" style="stroke:#000000;stroke-width:1.0;" width="4" x="157.875" y="178"/><text fill="#000000" font-family="Manrope" font-size="12" lengthAdjust="spacing" textLength="69.375" x="85.5" y="199.457">Backend API</text></g><!--entity DB--><g id="elem_DB"><path d="M82.5,319.5 C82.5,309.5 125.1836,309.5 125.1836,309.5 C125.1836,309.5 167.8672,309.5 167.8672,319.5 L167.8672,343.5938 C167.8672,353.5938 125.1836,353.5938 125.1836,353.5938 C125.1836,353.5938 82.5,353.5938 82.5,343.5938 L82.5,319.5 " fill="#FFFFFF" style="stroke:#000000;stroke-width:1.0;"/><path d="M82.5,319.5 C82.5,329.5 125.1836,329.5 125.1836,329.5 C125.1836,329.5 167.8672,329.5 167.8672,319.5 " fill="none" style="stroke:#000000;stroke-width:1.0;"/><text fill="#000000" font-family="Manrope" font-size="12" lengthAdjust="spacing" textLength="65.3672" x="92.5" y="345.957">PostgreSQL</text></g><!--entity Stripe--><g id="elem_Stripe"><rect fill="#FFFFFF" height="45.0938" rx="2.5" ry="2.5" style="stroke:#000000;stroke-width:1.0;" width="94.0234" x="236" y="309"/><rect fill="#FFFFFF" height="10" style="stroke:#000000;stroke-width:1.0;" width="15" x="310.0234" y="314"/><rect fill="#FFFFFF" height="2" style="stroke:#000000;stroke-width:1.0;" width="4" x="308.0234" y="316"/><rect fill="#FFFFFF" height="2" style="stroke:#000000;stroke-width:1.0;" width="4" x="308.0234" y="320"/><text fill="#000000" font-family="Manrope" font-size="12" lengthAdjust="spacing" textLength="54.0234" x="251" y="341.457">Stripe API</text></g><!--entity Mail--><g id="elem_Mail"><rect fill="#FFFFFF" height="45.0938" rx="2.5" ry="2.5" style="stroke:#000000;stroke-width:1.0;" width="90.6953" x="365.5" y="309"/><rect fill="#FFFFFF" height="10" style="stroke:#000000;stroke-width:1.0;" width="15" x="436.1953" y="314"/><rect fill="#FFFFFF" height="2" style="stroke:#000000;stroke-width:1.0;" width="4" x="434.1953" y="316"/><rect fill="#FFFFFF" height="2" style="stroke:#000000;stroke-width:1.0;" width="4" x="434.1953" y="320"/><text fill="#000000" font-family="Manrope" font-size="12" lengthAdjust="spacing" textLength="50.6953" x="380.5" y="341.457">SendGrid</text></g><!--entity Maps--><g id="elem_Maps"><rect fill="#FFFFFF" height="45.0938" rx="2.5" ry="2.5" style="stroke:#000000;stroke-width:1.0;" width="111.373" x="491.5" y="309"/><rect fill="#FFFFFF" height="10" style="stroke:#000000;stroke-width:1.0;" width="15" x="582.873" y="314"/><rect fill="#FFFFFF" height="2" style="stroke:#000000;stroke-width:1.0;" width="4" x="580.873" y="316"/><rect fill="#FFFFFF" height="2" style="stroke:#000000;stroke-width:1.0;" width="4" x="580.873" y="320"/><text fill="#000000" font-family="Manrope" font-size="12" lengthAdjust="spacing" textLength="71.373" x="506.5" y="341.457">Google Maps</text></g><g id="elem_GMN15"><path d="M638,311.5 L638,351.6875 L766.3906,351.6875 L766.3906,321.5 L756.3906,311.5 L638,311.5 " fill="#FFFFFF" style="stroke:#000000;stroke-width:1.0;"/><path d="M756.3906,311.5 L756.3906,321.5 L766.3906,321.5 L756.3906,311.5 " fill="#FFFFFF" style="stroke:#000000;stroke-width:1.0;"/><text fill="#000000" font-family="Manrope" font-size="12" lengthAdjust="spacing" textLength="56.0391" x="644" y="328.957">&#171;external&#187;</text><text fill="#000000" font-family="Manrope" font-size="12" lengthAdjust="spacing" textLength="107.3906" x="644" y="344.0508">cobran&#231;a recorrente</text></g><!--link FE to BE--><g id="link_FE_BE"><path d="M122.54,90.23 C123.09,111.98 123.6711,135.2431 124.2111,156.9331 " fill="none" id="FE-to-BE" style="stroke:#475569;stroke-width:1.0;"/><path d="M132.838,163.6423 A9,9 0 0 0 115.9288 164.0633" fill="none" style="stroke:#475569;stroke-width:1.5;"/><text fill="#000000" font-family="Manrope" font-size="12" lengthAdjust="spacing" textLength="28.0078" x="125" y="133.457">IRest</text></g><!--link BE to DB--><g id="link_BE_DB"><path d="M125,212.07 C125,238.45 125,272.85 125,299.14 " fill="none" id="BE-to-DB" style="stroke:#475569;stroke-width:1.0;"/><path d="M133.4572,306.0618 A9,9 0 0 0 116.5428 306.0618" fill="none" style="stroke:#475569;stroke-width:1.5;"/><text fill="#000000" font-family="Manrope" font-size="12" lengthAdjust="spacing" textLength="27.3457" x="126" y="255.457">ISQL</text></g><!--link BE to Stripe--><g id="link_BE_Stripe"><path d="M149.34,212.07 C179.03,238.38 221.4459,275.9576 251.1459,302.2776 " fill="none" id="BE-to-Stripe" style="stroke:#475569;stroke-width:1.0;"/><path d="M261.9354,300.539 A9,9 0 0 0 250.7171 313.1979" fill="none" style="stroke:#475569;stroke-width:1.5;"/><text fill="#000000" font-family="Manrope" font-size="12" lengthAdjust="spacing" textLength="50.6895" x="201" y="255.457">IPayment</text></g><!--link BE to Mail--><g id="link_BE_Mail"><path d="M179.87,201.87 C227.01,213.32 295.46,234.07 348,267 C365.76,278.13 375.803,287.5866 387.483,301.2166 " fill="none" id="BE-to-Mail" style="stroke:#475569;stroke-width:1.0;"/><path d="M398.4089,300.9695 A9,9 0 0 0 385.5652 311.9757" fill="none" style="stroke:#475569;stroke-width:1.5;"/><text fill="#000000" font-family="Manrope" font-size="12" lengthAdjust="spacing" textLength="25.3359" x="332" y="255.457">IMail</text></g><!--link BE to Maps--><g id="link_BE_Maps"><path d="M179.58,193.9 C250.81,200.19 377.72,217.89 474,267 C494.5,277.46 506.9635,287.7651 520.6335,301.7251 " fill="none" id="BE-to-Maps" style="stroke:#475569;stroke-width:1.0;"/><path d="M531.519,300.7536 A9,9 0 0 0 519.4338 312.5877" fill="none" style="stroke:#475569;stroke-width:1.5;"/><text fill="#000000" font-family="Manrope" font-size="12" lengthAdjust="spacing" textLength="26.0156" x="457" y="255.457">IGeo</text></g><!--link Stripe to GMN15--><g id="link_Stripe_GMN15"><path d="M295.62,308.71 C309.46,286.34 333.96,253.58 365.5,239.5 C413.39,218.12 552.62,220.5 601.5,239.5 C638.54,253.89 670.25,289.02 687.67,311.46 " fill="none" id="Stripe-GMN15" style="stroke:#475569;stroke-width:1.0;stroke-dasharray:7.0,7.0;"/></g><!--SRC=[TP2nRjim48PtFiLLNR9uI12tI3UhjWm3TU5KG-UpT9Q9K3pYI3TDWpnFXZv0XcxsYuMKRCTf48x_VVp__-v3M5DBu0ngg_oDjWu5MrXYTTC8RspzbGqBV2owTq9Kt3gsP4CPxWp1fZKN9rE_nffljMrWXSRJoMHCAzoOKB0Dtp4cpz4AktU8KlyXE3yr7edmxRxJvUVXyDELKYwMnOOWMw1Kf8MXZhuaLUm0soUOsK1YEODx1I-z8IiaHf2juISjCm103yNaDP97wqIC5hD492HFI8q1b-W9OYZxq0YLrzyw8Y7ZN3qeLHdUr92L9B_qxf4zJ7vtFVoR8cKGxUWOaYnwwJyiDfcAhdkem-QepMjeojoOT5RdioFaV2fKJ60mE8iBTB-_mEm7-Q3oNXtd1pLkSX3tnQAumBis-Xy6ARUdkmP7rVbUdH8hPJaGY6xM0NZrij7sBtM7GBFzrtLV2jhT8u9GnI8nXLIwUVh-3000]--></g></svg>